<?xml version="1.0" encoding="utf-8"?>
<!-- Generator: Adobe Illustrator 16.0.0, SVG Export Plug-In . SVG Version: 6.00 Build 0)  -->
<!DOCTYPE svg PUBLIC "-//W3C//DTD SVG 1.1//EN" "http://www.w3.org/Graphics/SVG/1.1/DTD/svg11.dtd">
<svg version="1.1" id="Camada_1" xmlns="http://www.w3.org/2000/svg" xmlns:xlink="http://www.w3.org/1999/xlink" x="0px" y="0px"
	 width="960px" height="560px" viewBox="0 0 960 560" enable-background="new 0 0 960 560" xml:space="preserve">
<g>
	<path d="M182.375,242.259l-66.364,163.124h-2.026L25.33,199.705c-8.612-19.251-13.171-26.85-25.33-38.501v-3.546h99.293v3.546
		c-9.119,7.599-13.172,12.158-13.172,20.264c0,3.546,1.52,8.106,3.546,13.172l47.62,113.478l35.462-89.161l-8.106-19.25
		c-7.092-17.225-13.171-26.85-25.33-38.501v-3.546H238.1v3.546c-9.119,7.599-13.171,12.158-13.171,20.264
		c0,4.053,1.013,8.612,3.04,13.678l45.087,113.984l45.594-110.438c2.026-5.066,2.533-9.119,2.533-11.652
		c0-9.625-10.639-18.237-20.771-25.836v-3.546h69.404v3.546c-13.172,11.652-21.784,19.757-30.396,40.021l-86.121,204.159h-2.027
		L182.375,242.259L182.375,242.259z"/>
	<path d="M773.572,242.259l-66.87,163.631h-2.026l-88.654-206.185c-8.612-19.251-12.665-26.85-25.33-38.501v-3.546h99.293v3.546
		c-9.119,7.599-13.172,12.158-13.172,20.264c0,4.053,1.52,8.106,3.546,13.172l47.62,113.478l35.462-89.161l-8.105-19.25
		c-7.092-17.225-13.171-26.85-25.33-38.501v-3.546h98.28v3.546c-9.119,7.599-13.172,12.158-13.172,20.264
		c0,4.053,1.014,8.612,3.04,13.678l45.087,113.984l45.594-110.438c2.026-5.066,2.533-9.119,2.533-11.652
		c0-9.625-10.639-18.237-20.771-25.836v-3.546H960v3.546c-12.665,11.652-21.783,19.757-30.396,40.021L843.482,405.89h-2.026
		L773.572,242.259L773.572,242.259z"/>
	<path d="M480.253,171.335c-41.54,0-87.134,37.488-87.134,108.412c0,70.417,45.594,108.412,87.134,108.412
		c41.541,0,87.135-37.488,87.135-108.412C567.388,209.33,521.794,171.335,480.253,171.335L480.253,171.335z M480.253,154.111
		c71.431,0,129.688,52.179,129.688,125.636s-58.258,125.636-129.688,125.636c-71.43,0-129.688-52.18-129.688-125.636
		S408.823,154.111,480.253,154.111L480.253,154.111z"/>
</g>
<g>
	<polygon points="546.617,298.49 516.222,268.095 546.617,237.699 	"/>
	<polygon points="449.857,268.095 480.253,237.699 485.319,242.259 454.417,272.654 	"/>
	<polygon points="459.482,277.72 489.879,247.325 494.944,251.884 464.549,282.786 	"/>
	<polygon points="469.108,287.852 500.011,256.95 504.57,262.016 474.174,292.412 	"/>
	<polygon points="479.24,297.478 509.636,267.082 514.702,271.641 483.8,302.543 	"/>
	<polygon points="488.865,307.609 519.768,276.707 524.327,281.773 493.932,312.169 	"/>
	<polygon points="498.997,317.234 529.394,286.839 534.459,291.398 503.557,321.794 	"/>
	<polygon points="508.623,326.86 539.019,296.465 544.084,301.53 513.688,331.926 	"/>
	<polygon points="413.889,246.818 413.889,243.778 474.174,304.57 472.654,306.09 	"/>
	<polygon points="413.889,240.739 413.889,237.699 477.721,301.53 476.2,303.051 	"/>
	<polygon points="413.889,253.404 413.889,250.364 471.135,307.609 469.615,309.129 	"/>
	<polygon points="413.889,259.989 413.889,256.95 468.095,311.155 466.575,312.676 	"/>
	<polygon points="413.889,266.575 413.889,263.029 464.549,314.195 463.029,315.715 	"/>
	<polygon points="413.889,272.654 413.889,269.615 461.509,317.234 459.989,319.261 	"/>
	<polygon points="413.889,279.24 413.889,276.201 458.47,320.781 456.443,322.301 	"/>
	<polygon points="413.889,285.826 413.889,282.786 454.924,323.82 453.403,325.341 	"/>
	<polygon points="413.889,292.412 413.889,288.865 451.884,326.86 450.364,328.887 	"/>
	<polygon points="413.889,298.49 413.889,295.451 448.845,330.406 446.818,331.926 	"/>
</g>
</svg>
