<?xml version="1.0" encoding="utf-8"?>
<!-- Generator: Adobe Illustrator 23.0.6, SVG Export Plug-In . SVG Version: 6.00 Build 0)  -->
<svg version="1.1" id="Layer_1" xmlns="http://www.w3.org/2000/svg" xmlns:xlink="http://www.w3.org/1999/xlink" x="0px" y="0px"
	 viewBox="0 0 22 22" style="enable-background:new 0 0 22 22;" xml:space="preserve">
<style type="text/css">
	.st0{fill:#8D1C22;}
</style>
<g id="Group_17">
	<g id="Group_16">
		<path id="Path_67" class="st0" d="M19.4,1.7h-1V0h-1.7v1.7H5.3V0H3.6v1.7h-1C1.2,1.7,0,2.9,0,4.3v15.1C0,20.9,1.2,22,2.6,22h16.9
			c1.4,0,2.6-1.2,2.6-2.6V4.3C22,2.9,20.9,1.7,19.4,1.7z M20.3,19.4c0,0.5-0.4,0.9-0.9,0.9H2.6c-0.5,0-0.9-0.4-0.9-0.9l0,0V8.1h18.6
			L20.3,19.4z M20.3,6.4H1.7V4.3c0-0.5,0.4-0.9,0.9-0.9l0,0h1v1.7h1.7V3.4h11.4v1.7h1.7V3.4h1c0.5,0,0.9,0.4,0.9,0.9L20.3,6.4z"/>
	</g>
</g>
<g id="Group_19" transform="translate(3.326 8.985)">
	<g id="Group_18" transform="translate(0 0)">
		<rect id="Rectangle_40" x="0" y="0" class="st0" width="2" height="2"/>
	</g>
</g>
<g id="Group_21" transform="translate(7.001 8.985)">
	<g id="Group_20" transform="translate(0 0)">
		<rect id="Rectangle_41" x="0" y="0" class="st0" width="2" height="2"/>
	</g>
</g>
<g id="Group_23" transform="translate(9.757 8.985)">
	<g id="Group_22" transform="translate(0 0)">
		<rect id="Rectangle_42" x="0" y="0" class="st0" width="2" height="2"/>
	</g>
</g>
<g id="Group_25" transform="translate(13.432 8.985)">
	<g id="Group_24" transform="translate(0 0)">
		<rect id="Rectangle_43" x="0" y="0" class="st0" width="2" height="2"/>
	</g>
</g>
<g id="Group_27" transform="translate(17.107 8.985)">
	<g id="Group_26" transform="translate(0 0)">
		<rect id="Rectangle_44" x="0" y="0" class="st0" width="2" height="2"/>
	</g>
</g>
<g id="Group_29" transform="translate(3.326 12.629)">
	<g id="Group_28" transform="translate(0 0)">
		<rect id="Rectangle_45" x="0" y="0" class="st0" width="2" height="2"/>
	</g>
</g>
<g id="Group_31" transform="translate(7.001 12.629)">
	<g id="Group_30" transform="translate(0 0)">
		<rect id="Rectangle_46" x="0" y="0" class="st0" width="2" height="2"/>
	</g>
</g>
<g id="Group_33" transform="translate(9.757 12.629)">
	<g id="Group_32" transform="translate(0 0)">
		<rect id="Rectangle_47" x="0" y="0" class="st0" width="2" height="2"/>
	</g>
</g>
<g id="Group_35" transform="translate(13.432 12.629)">
	<g id="Group_34" transform="translate(0 0)">
		<rect id="Rectangle_48" x="0" y="0" class="st0" width="2" height="2"/>
	</g>
</g>
<g id="Group_37" transform="translate(3.326 16.808)">
	<g id="Group_36" transform="translate(0 0)">
		<rect id="Rectangle_49" x="0" y="0" class="st0" width="2" height="2"/>
	</g>
</g>
<g id="Group_39" transform="translate(7.001 16.808)">
	<g id="Group_38" transform="translate(0 0)">
		<rect id="Rectangle_50" x="0" y="0" class="st0" width="2" height="2"/>
	</g>
</g>
<g id="Group_41" transform="translate(9.757 16.808)">
	<g id="Group_40" transform="translate(0 0)">
		<rect id="Rectangle_51" x="0" y="0" class="st0" width="2" height="2"/>
	</g>
</g>
<g id="Group_43" transform="translate(13.432 16.808)">
	<g id="Group_42" transform="translate(0 0)">
		<rect id="Rectangle_52" x="0" y="0" class="st0" width="2" height="2"/>
	</g>
</g>
<g id="Group_45" transform="translate(17.107 12.629)">
	<g id="Group_44" transform="translate(0 0)">
		<rect id="Rectangle_53" x="0" y="0" class="st0" width="2" height="2"/>
	</g>
</g>
</svg>
