<?xml version="1.0" encoding="utf-8"?>
<!-- Generator: Adobe Illustrator 23.0.6, SVG Export Plug-In . SVG Version: 6.00 Build 0)  -->
<svg version="1.1" id="Layer_1" xmlns="http://www.w3.org/2000/svg" xmlns:xlink="http://www.w3.org/1999/xlink" x="0px" y="0px"
	 viewBox="0 0 30 30" style="enable-background:new 0 0 30 30;" xml:space="preserve">
<style type="text/css">
	.st0{fill:none;}
	.st1{fill:#8D1C22;}
	.st2{fill:none;stroke:#8D1C22;stroke-width:2;stroke-linecap:round;stroke-linejoin:round;}
</style>
<g id="Group_238" transform="translate(0.402 -0.098)">
	<g id="Path_173" transform="translate(-0.402 0.098)">
		<path class="st0" d="M15,0c8.3,0,15,6.7,15,15s-6.7,15-15,15S0,23.3,0,15S6.7,0,15,0z"/>
		<path class="st1" d="M15,2c-3.5,0-6.7,1.4-9.2,3.8C3.4,8.3,2,11.5,2,15s1.4,6.7,3.8,9.2C8.3,26.6,11.5,28,15,28s6.7-1.4,9.2-3.8
			c2.5-2.5,3.8-5.7,3.8-9.2s-1.4-6.7-3.8-9.2C21.7,3.4,18.5,2,15,2 M15,0c8.3,0,15,6.7,15,15s-6.7,15-15,15S0,23.3,0,15S6.7,0,15,0z
			"/>
	</g>
	<g id="close" transform="translate(4.607 5.107)">
		<line id="Line_22" class="st2" x1="14" y1="6" x2="6" y2="14"/>
		<line id="Line_23" class="st2" x1="6" y1="6" x2="14" y2="14"/>
	</g>
</g>
</svg>
