<?xml version="1.0" encoding="utf-8"?>
<!-- Generator: Adobe Illustrator 23.0.6, SVG Export Plug-In . SVG Version: 6.00 Build 0)  -->
<svg version="1.1" id="Layer_1" xmlns="http://www.w3.org/2000/svg" xmlns:xlink="http://www.w3.org/1999/xlink" x="0px" y="0px"
	 viewBox="0 0 648 196.5" style="enable-background:new 0 0 648 196.5;" xml:space="preserve">
<style type="text/css">
	.st0{fill:#E2001D;}
	.st1{fill:#EA630D;}
	.st2{fill:#F5A100;}
	.st3{fill:url(#SVGID_1_);}
	.st4{fill:url(#SVGID_2_);}
	.st5{fill:url(#SVGID_3_);}
	.st6{fill:url(#SVGID_4_);}
</style>
<g>
	<g>
		<path d="M43.3,176.3c-0.7-0.7-1.6-1.3-2.6-1.7s-2.1-0.6-3.3-0.6c-0.6,0-1.3,0.1-2,0.2c-0.7,0.1-1.3,0.3-2,0.6
			c-0.6,0.3-1.3,0.7-1.8,1.1c-0.6,0.5-1.1,1.1-1.5,1.8c-0.7-1.2-1.6-2.1-2.8-2.7c-1.2-0.7-2.6-1-4.1-1c-0.5,0-1,0-1.6,0.1
			s-1.1,0.3-1.6,0.5c-0.5,0.2-1.1,0.5-1.6,0.9s-0.9,0.9-1.3,1.5v-2.5h-4.3v20.7h4.4v-11.5c0-0.9,0.1-1.7,0.4-2.3
			c0.3-0.7,0.7-1.3,1.1-1.7c0.5-0.5,1-0.8,1.6-1c0.6-0.2,1.3-0.4,2-0.4c1.5,0,2.6,0.5,3.4,1.4s1.2,2.3,1.2,4v11.5h4.4v-11.5
			c0-0.9,0.1-1.7,0.4-2.3c0.3-0.7,0.7-1.3,1.1-1.7c0.5-0.5,1-0.8,1.6-1c0.6-0.2,1.3-0.4,2-0.4c1.5,0,2.6,0.5,3.4,1.4
			c0.8,0.9,1.2,2.3,1.2,4v11.5h4.4v-13c0-1.2-0.2-2.3-0.6-3.3C44.6,177.9,44.1,177.1,43.3,176.3z"/>
		<path d="M66.5,177.1c-0.7-0.9-1.6-1.7-2.7-2.2c-1.1-0.6-2.3-0.8-3.8-0.8s-2.8,0.3-4.1,0.8s-2.3,1.3-3.3,2.3
			c-0.9,1-1.7,2.1-2.2,3.4s-0.8,2.8-0.8,4.4s0.3,3,0.8,4.4c0.5,1.3,1.3,2.5,2.2,3.4c0.9,1,2,1.7,3.3,2.3c1.3,0.5,2.6,0.8,4.1,0.8
			s2.8-0.3,3.8-0.8c1.1-0.5,2-1.3,2.7-2.2v2.5H71v-20.7h-4.5V177.1z M66.3,187.5c-0.3,0.8-0.7,1.5-1.3,2.1c-0.5,0.6-1.2,1.1-2,1.4
			c-0.8,0.3-1.6,0.5-2.5,0.5c-1,0-1.9-0.2-2.6-0.5c-0.8-0.4-1.4-0.8-2-1.4c-0.5-0.6-0.9-1.3-1.2-2.1c-0.3-0.8-0.4-1.7-0.4-2.6
			c0-0.9,0.1-1.8,0.4-2.6c0.3-0.8,0.7-1.5,1.2-2.1s1.2-1.1,2-1.4c0.8-0.4,1.6-0.5,2.6-0.5c0.9,0,1.8,0.2,2.5,0.5
			c0.8,0.3,1.4,0.8,2,1.4c0.5,0.6,1,1.3,1.3,2.1c0.3,0.8,0.5,1.7,0.5,2.6C66.8,185.8,66.6,186.7,66.3,187.5z"/>
		<path d="M91.7,184.9c-1.3-1-3-1.6-5.3-2l-2.1-0.3c-0.5-0.1-0.9-0.2-1.3-0.2c-0.4-0.1-0.8-0.2-1.1-0.4c-0.3-0.2-0.5-0.4-0.7-0.6
			c-0.2-0.2-0.3-0.5-0.3-0.9c0-0.7,0.3-1.3,1-1.8s1.6-0.7,2.9-0.7c0.6,0,1.3,0.1,1.9,0.2s1.2,0.3,1.8,0.4c0.6,0.2,1.1,0.4,1.5,0.6
			c0.5,0.2,0.8,0.4,1.2,0.6l1.9-3.5c-1.1-0.7-2.3-1.2-3.8-1.6c-1.4-0.4-3-0.6-4.6-0.6c-1.3,0-2.5,0.2-3.6,0.5
			c-1.1,0.3-1.9,0.7-2.7,1.3c-0.7,0.6-1.3,1.3-1.7,2.1c-0.4,0.8-0.6,1.7-0.6,2.8c0,1.7,0.6,3,1.8,4c1.2,1,2.9,1.7,5.2,2l2.2,0.3
			c1.2,0.2,2.1,0.5,2.7,0.8c0.6,0.4,0.9,0.9,0.9,1.5c0,0.8-0.4,1.4-1.2,1.8c-0.8,0.5-2,0.7-3.5,0.7c-0.8,0-1.6-0.1-2.3-0.2
			c-0.7-0.1-1.3-0.3-1.8-0.5c-0.6-0.2-1.1-0.4-1.5-0.7c-0.4-0.3-0.8-0.5-1.2-0.8l-2.1,3.4c0.7,0.6,1.5,1,2.4,1.4
			c0.8,0.3,1.6,0.6,2.4,0.8c0.8,0.2,1.5,0.3,2.2,0.4s1.3,0.1,1.9,0.1c1.5,0,2.8-0.2,4-0.5c1.2-0.3,2.2-0.8,3-1.4
			c0.8-0.6,1.4-1.3,1.8-2.1c0.4-0.8,0.6-1.7,0.6-2.7C93.6,187.2,93,185.9,91.7,184.9z"/>
		<path d="M134,177c-0.9-1-1.9-1.7-3.1-2.2c-1.2-0.5-2.5-0.8-4-0.8s-2.9,0.3-4.2,0.8c-1.3,0.5-2.3,1.3-3.3,2.2
			c-0.9,1-1.6,2.1-2.1,3.4c-0.5,1.3-0.8,2.8-0.8,4.4c0,1.6,0.3,3.1,0.8,4.5c0.5,1.3,1.2,2.5,2.2,3.4c0.9,1,2.1,1.7,3.3,2.2
			c1.3,0.5,2.7,0.8,4.3,0.8c1.6,0,3.1-0.2,4.5-0.6c1.4-0.4,2.8-1.2,4-2.3l-2.2-3.2c-0.9,0.7-1.8,1.2-2.9,1.6c-1,0.4-2.1,0.6-3.1,0.6
			c-0.7,0-1.4-0.1-2.1-0.3c-0.7-0.2-1.3-0.5-1.8-0.9s-1-1-1.4-1.6c-0.4-0.7-0.7-1.5-0.8-2.4h15.3c0-0.3,0.1-0.5,0.1-0.8
			c0-0.3,0-0.6,0-0.9c0-1.6-0.2-3.1-0.7-4.4C135.5,179.1,134.9,178,134,177z M121.4,183.1c0.1-0.7,0.3-1.4,0.6-2.1
			c0.3-0.6,0.7-1.2,1.1-1.6c0.5-0.5,1-0.8,1.6-1c0.6-0.2,1.3-0.4,2.1-0.4c1.4,0,2.6,0.4,3.5,1.3s1.5,2.1,1.7,3.8H121.4z"/>
		<path d="M194,177.1c-0.7-0.9-1.6-1.7-2.7-2.2c-1.1-0.6-2.3-0.8-3.8-0.8s-2.8,0.3-4.1,0.8s-2.3,1.3-3.3,2.3c-0.9,1-1.7,2.1-2.2,3.4
			s-0.8,2.8-0.8,4.4s0.3,3,0.8,4.4c0.5,1.3,1.3,2.5,2.2,3.4c0.9,1,2,1.7,3.3,2.3c1.3,0.5,2.6,0.8,4.1,0.8s2.8-0.3,3.8-0.8
			s2-1.3,2.7-2.2v2.5h4.5v-20.7H194V177.1z M193.8,187.5c-0.3,0.8-0.7,1.5-1.3,2.1c-0.5,0.6-1.2,1.1-2,1.4c-0.8,0.3-1.6,0.5-2.5,0.5
			c-1,0-1.9-0.2-2.6-0.5c-0.7-0.3-1.4-0.8-2-1.4c-0.5-0.6-0.9-1.3-1.2-2.1c-0.3-0.8-0.4-1.7-0.4-2.6c0-0.9,0.1-1.8,0.4-2.6
			c0.3-0.8,0.7-1.5,1.2-2.1s1.2-1.1,2-1.4c0.8-0.4,1.6-0.5,2.6-0.5c0.9,0,1.8,0.2,2.5,0.5c0.8,0.3,1.4,0.8,2,1.4
			c0.5,0.6,1,1.3,1.3,2.1c0.3,0.8,0.5,1.7,0.5,2.6C194.3,185.8,194.1,186.7,193.8,187.5z"/>
		<path d="M111.1,191.1c-0.7,0.3-1.4,0.4-2.1,0.4c-0.5,0-0.9-0.1-1.3-0.2s-0.7-0.4-1-0.7c-0.3-0.3-0.5-0.7-0.7-1.2s-0.3-1.1-0.3-1.8
			v-9h7.2v-4.1h-7.2v-6.3h-4.5v6.3H97v4.1h4.1v9.1c0,2.7,0.7,4.8,2,6.1c1.3,1.3,3.1,2,5.5,2c1.3,0,2.5-0.2,3.5-0.6
			c0.7-0.3,1.3-0.6,1.9-0.9l-1.5-3.8C112,190.7,111.6,190.9,111.1,191.1z"/>
		<path d="M151.8,174c-1.3,0-2.4,0.2-3.4,0.7s-1.9,1.6-2.6,2.6v-2.7h-4.1v20.7h4.1v-11.4c0-0.9,0.1-1.7,0.4-2.4
			c0.2-0.7,0.6-1.3,1-1.7c0.4-0.5,1-0.8,1.6-1.1c0.6-0.2,1.3-0.4,2-0.4c0.5,0,1.1,0.1,1.8,0.2c0.3,0.1,0.6,0.1,0.9,0.2l1.3-4.3
			c-0.4-0.1-0.7-0.2-1.1-0.3C153.2,174.1,152.5,174,151.8,174z"/>
		<path d="M214.6,174c-1.3,0-2.4,0.2-3.4,0.7s-1.9,1.6-2.6,2.6v-2.7h-4.1v20.7h4.1v-11.4c0-0.9,0.1-1.7,0.4-2.4
			c0.2-0.7,0.6-1.3,1-1.7c0.4-0.5,1-0.8,1.6-1.1c0.6-0.2,1.3-0.4,2-0.4c0.5,0,1.1,0.1,1.8,0.2c0.3,0.1,0.6,0.1,0.9,0.2l1.3-4.3
			c-0.4-0.1-0.7-0.2-1.1-0.3C215.9,174.1,215.3,174,214.6,174z"/>
		<path d="M235.7,166.2v10.9c-0.7-0.9-1.6-1.7-2.7-2.2c-1.1-0.6-2.3-0.8-3.8-0.8s-2.8,0.3-4.1,0.8s-2.3,1.3-3.3,2.3
			c-0.9,1-1.7,2.1-2.2,3.4s-0.8,2.8-0.8,4.4s0.3,3,0.8,4.4c0.5,1.3,1.3,2.5,2.2,3.4c0.9,1,2,1.7,3.3,2.3c1.3,0.5,2.6,0.8,4.1,0.8
			s2.8-0.3,3.8-0.8c1.1-0.5,2-1.3,2.7-2.2v2.5h4.5v-29.1L235.7,166.2L235.7,166.2z M235.5,187.5c-0.3,0.8-0.7,1.5-1.3,2.1
			c-0.5,0.6-1.2,1.1-2,1.4c-0.8,0.3-1.6,0.5-2.5,0.5c-1,0-1.9-0.2-2.6-0.5c-0.8-0.4-1.4-0.8-2-1.4c-0.5-0.6-0.9-1.3-1.2-2.1
			c-0.3-0.8-0.4-1.7-0.4-2.6c0-0.9,0.1-1.8,0.4-2.6c0.3-0.8,0.7-1.5,1.2-2.1s1.2-1.1,2-1.4c0.8-0.4,1.6-0.5,2.6-0.5
			c0.9,0,1.8,0.2,2.5,0.5c0.8,0.3,1.4,0.8,2,1.4c0.5,0.6,1,1.3,1.3,2.1c0.3,0.8,0.5,1.7,0.5,2.6C236,185.8,235.8,186.7,235.5,187.5z
			"/>
		<path d="M162.6,180.1c0.6-0.6,1.3-1,2.1-1.4c0.8-0.3,1.6-0.5,2.6-0.5l0,0c1,0,2,0.2,2.8,0.5c0.8,0.3,1.6,0.7,2.2,1.3l2.2-3.6
			c-0.8-0.7-1.7-1.2-2.8-1.6c-1.4-0.6-2.8-0.8-4.4-0.8c-1.6,0-3.1,0.3-4.4,0.8c-1.4,0.6-2.5,1.3-3.5,2.3s-1.8,2.1-2.3,3.4
			c-0.6,1.3-0.8,2.8-0.8,4.3c0,1.6,0.3,3,0.8,4.3c0.6,1.3,1.3,2.5,2.3,3.4c1,1,2.2,1.7,3.5,2.3c1.4,0.6,2.8,0.8,4.4,0.8
			c1.6,0,3.1-0.3,4.4-0.8c1-0.4,1.9-0.9,2.8-1.6l-2.2-3.6c-0.6,0.6-1.3,1-2.2,1.3c-0.9,0.3-1.8,0.5-2.8,0.5l0,0
			c-0.9,0-1.8-0.2-2.6-0.5c-0.8-0.3-1.5-0.8-2.1-1.4c-0.6-0.6-1-1.3-1.4-2.1c-0.3-0.8-0.5-1.7-0.5-2.7s0.2-1.9,0.5-2.7
			C161.6,181.4,162.1,180.7,162.6,180.1z"/>
	</g>
	<g>
		<path d="M249.7,192.2c0.3,0,0.6,0.1,0.8,0.2c0.3,0.1,0.5,0.3,0.7,0.5c0.2,0.2,0.3,0.4,0.5,0.7c0.1,0.3,0.2,0.5,0.2,0.8
			c0,0.3-0.1,0.6-0.2,0.8c-0.1,0.3-0.3,0.5-0.5,0.7c-0.2,0.2-0.4,0.3-0.7,0.5c-0.3,0.1-0.5,0.2-0.8,0.2s-0.6-0.1-0.9-0.2
			c-0.3-0.1-0.5-0.3-0.7-0.5c-0.2-0.2-0.3-0.4-0.5-0.7c-0.1-0.3-0.2-0.5-0.2-0.8c0-0.3,0.1-0.6,0.2-0.8c0.1-0.3,0.3-0.5,0.5-0.7
			c0.2-0.2,0.4-0.3,0.7-0.5C249.1,192.3,249.4,192.2,249.7,192.2z M249.7,195.9c0.2,0,0.4,0,0.6-0.1c0.2-0.1,0.3-0.2,0.5-0.3
			c0.1-0.1,0.2-0.3,0.3-0.5c0.1-0.2,0.1-0.4,0.1-0.6s0-0.4-0.1-0.6s-0.2-0.3-0.3-0.5c-0.1-0.1-0.3-0.2-0.5-0.3s-0.4-0.1-0.6-0.1
			c-0.2,0-0.4,0-0.6,0.1c-0.2,0.1-0.3,0.2-0.5,0.3c-0.1,0.1-0.2,0.3-0.3,0.5c-0.1,0.2-0.1,0.4-0.1,0.6c0,0.2,0,0.4,0.1,0.6
			c0.1,0.2,0.2,0.3,0.3,0.5c0.1,0.1,0.3,0.2,0.5,0.3C249.3,195.8,249.5,195.9,249.7,195.9z M249.8,193.4c0.3,0,0.5,0.1,0.6,0.2
			s0.2,0.3,0.2,0.5c0,0.2,0,0.3-0.1,0.4s-0.2,0.2-0.4,0.2l0.6,0.7H250l-0.5-0.7h-0.1v0.7h-0.5v-1.9h0.9V193.4z M249.4,193.9v0.3h0.4
			c0.1,0,0.1,0,0.2,0l0.1-0.1c0-0.1,0-0.1-0.1-0.1c0,0-0.1,0-0.2,0h-0.4V193.9z"/>
	</g>
	<g>
		<path class="st0" d="M96.7,77.9c0-24.8,11.6-46.8,29.6-61.1C113,6.2,96.2-0.1,78-0.1c-43.1,0-78,34.9-78,78s34.9,78,78,78
			c18.3,0,35.1-6.3,48.4-16.8C108.3,124.7,96.7,102.6,96.7,77.9z"/>
		<ellipse class="st1" cx="126.3" cy="77.9" rx="29.6" ry="61.1"/>
		<path class="st2" d="M247.4,120v-2.3h-0.9v-0.6h2.5v0.6h-1v2.3H247.4z M252.2,120v-2l-0.7,1.7h-0.7l-0.7-1.7v2h-0.7v-2.9h1
			l0.7,1.9l0.7-1.9h1v2.9H252.2z"/>
		<path class="st2" d="M174.7-0.1c-18.3,0-35.1,6.3-48.4,16.8c18,14.3,29.6,36.3,29.6,61.1s-11.6,46.8-29.6,61.1
			c13.3,10.5,30.1,16.8,48.4,16.8c43.1,0,78-34.9,78-78S217.7-0.1,174.7-0.1z"/>
	</g>
</g>
<g>
	
		<linearGradient id="SVGID_1_" gradientUnits="userSpaceOnUse" x1="324.1071" y1="97.7077" x2="646.2162" y2="99.8268" gradientTransform="matrix(1 0 0 -1 0 198)">
		<stop  offset="0" style="stop-color:#262860"/>
		<stop  offset="1" style="stop-color:#3D429B"/>
	</linearGradient>
	<path class="st3" d="M648,151.9c-8.5,0-17.2,0-25.8,0c-0.9-4.6-2-9-2.8-13.5c-0.3-1.8-0.9-2.6-3-2.5c-10.4,0.1-20.7,0.1-31.1,0
		c-1.6,0-2.2,0.5-2.7,2c-1.5,4.2-3,8.5-4.6,12.7c-0.2,0.6-0.9,1.3-1.5,1.3c-9.3,0.1-18.7,0.1-28.3,0.1c1.8-4.2,3.4-8.2,5.1-12.3
		c12-28.7,24.1-57.4,36.2-86.2c2.7-6.2,6.6-8.8,13.3-8.8c7.5,0,15,0,22.7,0c0.8,3.5,1.5,7,2.2,10.4c6,28.4,11.8,56.8,17.8,85.2
		c0.8,3.6,1.6,7.2,2.5,10.9C648,151.4,648,151.7,648,151.9z M614.2,113.8c-2.7-13.2-5.4-26.2-8.2-39.3c-0.1,0-0.3-0.1-0.3-0.1
		c-4.7,13-9.4,26.1-14.2,39.3C599.2,113.8,606.6,113.8,614.2,113.8z"/>
	
		<linearGradient id="SVGID_2_" gradientUnits="userSpaceOnUse" x1="324.1019" y1="98.4892" x2="646.2103" y2="100.6083" gradientTransform="matrix(1 0 0 -1 0 198)">
		<stop  offset="0" style="stop-color:#262860"/>
		<stop  offset="1" style="stop-color:#3D429B"/>
	</linearGradient>
	<path class="st4" d="M535.5,42.8c3.4,0.6,6.8,1.1,10.2,2c3.1,0.7,6.1,1.7,9.4,2.7c-1.6,7.7-3.2,15.3-4.8,22.6
		c-4.3-1.3-8.4-2.7-12.7-3.7c-5.8-1.3-11.8-1.8-17.5-0.1c-2.3,0.6-4.7,1.9-6.6,3.5c-3.2,2.7-3.2,6.6-0.2,9.5c2.1,2,4.6,3.6,7.1,5.1
		c5.6,3.4,11.6,6.3,17.1,10c6.5,4.3,11.2,10.1,12.2,18.1c1.8,14.1-3.4,25.1-15.3,33c-7.4,4.9-15.8,7.2-24.6,7.9
		c-12.2,1.1-24.2-0.3-35.9-4.1c-0.8-0.3-1.5-0.6-2.3-0.9c-0.3-0.1-0.4-0.3-0.8-0.5c1.6-7.7,3.3-15.4,5-23.4c2,0.9,3.9,1.7,5.8,2.5
		c9.1,3.7,18.6,5.4,28.3,3.5c2.5-0.5,5.1-1.6,7.3-3c4.7-3.1,5.1-9,0.9-12.7c-2.8-2.4-6.1-4.2-9.4-6.1c-5-3-10.3-5.6-15-9
		c-6-4.4-10.4-10.1-11.3-17.9c-1.3-11.5,3-20.9,11.9-28.2c7.7-6.3,16.8-9.2,26.6-10.3c0.6-0.1,1.1-0.3,1.6-0.4
		C526.8,42.8,531.2,42.8,535.5,42.8z"/>
	
		<linearGradient id="SVGID_3_" gradientUnits="userSpaceOnUse" x1="324.0953" y1="99.4702" x2="646.2043" y2="101.5893" gradientTransform="matrix(1 0 0 -1 0 198)">
		<stop  offset="0" style="stop-color:#262860"/>
		<stop  offset="1" style="stop-color:#3D429B"/>
	</linearGradient>
	<path class="st5" d="M435.1,44.8c-1.5,3.5-2.8,6.8-4.2,10.1c-13.3,31.7-26.6,63.4-39.8,95.2c-0.6,1.5-1.4,1.9-2.9,1.9
		c-8.4-0.1-16.8-0.1-25.2,0c-1.8,0-2.3-0.6-2.8-2.2c-7.1-27.7-14.4-55.4-21.4-83.1c-1.3-5.1-3.9-8.5-8.7-10.7
		c-7.8-3.4-15.8-5.8-24.1-7.8c-0.3-0.1-0.7-0.2-1-0.3c0.1-3.2,0.1-3.2,3.1-3.2c14.7,0,29.4,0,44.1,0c7,0,12,4.1,13.3,11
		c3.7,19.5,7.3,39.1,11.1,58.6c0.2,0.8,0.3,1.7,0.6,2.9c0.4-0.7,0.6-1.1,0.8-1.6c9.1-23,18.2-46.1,27.3-69.2
		c0.5-1.3,1.1-1.7,2.5-1.6c8.5,0.1,17,0,25.6,0C433.7,44.7,434.3,44.8,435.1,44.8z"/>
	
		<linearGradient id="SVGID_4_" gradientUnits="userSpaceOnUse" x1="324.0999" y1="98.7454" x2="646.209" y2="100.8645" gradientTransform="matrix(1 0 0 -1 0 198)">
		<stop  offset="0" style="stop-color:#262860"/>
		<stop  offset="1" style="stop-color:#3D429B"/>
	</linearGradient>
	<path class="st6" d="M423.9,152c7.7-35.8,15.3-71.4,22.9-107.1c9.3,0,18.5,0,27.8,0c-1.1,5.4-2.3,10.8-3.4,16.1
		c-6.3,29.5-12.6,58.9-18.9,88.5c-0.4,2-1.1,2.7-3.3,2.7c-7.6-0.1-15.3-0.1-22.9-0.1C425.5,152,424.8,152,423.9,152z"/>
</g>
</svg>
