<?xml version="1.0" encoding="utf-8"?>
<!-- Generator: Adobe Illustrator 23.0.6, SVG Export Plug-In . SVG Version: 6.00 Build 0)  -->
<svg version="1.1" id="Layer_1" xmlns="http://www.w3.org/2000/svg" xmlns:xlink="http://www.w3.org/1999/xlink" x="0px" y="0px"
	 viewBox="0 0 906.2 196.7" style="enable-background:new 0 0 906.2 196.7;" xml:space="preserve">
<style type="text/css">
	.st0{fill:#E2001D;}
	.st1{fill:#EA630D;}
	.st2{fill:#F5A100;}
	.st3{fill:url(#SVGID_1_);}
	.st4{fill:url(#SVGID_2_);}
	.st5{fill:url(#SVGID_3_);}
	.st6{fill:url(#SVGID_4_);}
	.st7{fill:#0099BE;}
</style>
<g>
	<g>
		<path d="M305.6,176.4c-0.7-0.7-1.6-1.3-2.6-1.7s-2.1-0.6-3.3-0.6c-0.6,0-1.3,0.1-2,0.2c-0.7,0.1-1.3,0.3-2,0.6
			c-0.6,0.3-1.3,0.7-1.8,1.1c-0.6,0.5-1.1,1.1-1.5,1.8c-0.7-1.2-1.6-2.1-2.8-2.7c-1.2-0.7-2.6-1-4.1-1c-0.5,0-1,0-1.6,0.1
			s-1.1,0.3-1.6,0.5s-1.1,0.5-1.6,0.9s-0.9,0.9-1.3,1.5v-2.5h-4.3v20.7h4.4v-11.5c0-0.9,0.1-1.7,0.4-2.3c0.3-0.7,0.7-1.3,1.1-1.7
			c0.5-0.5,1-0.8,1.6-1s1.3-0.4,2-0.4c1.5,0,2.6,0.5,3.4,1.4s1.2,2.3,1.2,4v11.5h4.4v-11.5c0-0.9,0.1-1.7,0.4-2.3
			c0.3-0.7,0.7-1.3,1.1-1.7c0.5-0.5,1-0.8,1.6-1c0.6-0.2,1.3-0.4,2-0.4c1.5,0,2.6,0.5,3.4,1.4c0.8,0.9,1.2,2.3,1.2,4v11.5h4.4v-13
			c0-1.2-0.2-2.3-0.6-3.3C306.9,178,306.4,177.2,305.6,176.4z"/>
		<path d="M328.8,177.2c-0.7-0.9-1.6-1.7-2.7-2.2c-1.1-0.6-2.3-0.8-3.8-0.8s-2.8,0.3-4.1,0.8c-1.3,0.5-2.3,1.3-3.3,2.3
			c-0.9,1-1.7,2.1-2.2,3.4s-0.8,2.8-0.8,4.4s0.3,3,0.8,4.4c0.5,1.3,1.3,2.5,2.2,3.4c0.9,1,2,1.7,3.3,2.3c1.3,0.5,2.6,0.8,4.1,0.8
			s2.8-0.3,3.8-0.8c1.1-0.5,2-1.3,2.7-2.2v2.5h4.5v-20.7h-4.5V177.2z M328.6,187.6c-0.3,0.8-0.7,1.5-1.3,2.1c-0.5,0.6-1.2,1.1-2,1.4
			c-0.8,0.3-1.6,0.5-2.5,0.5c-1,0-1.9-0.2-2.6-0.5c-0.8-0.4-1.4-0.8-2-1.4c-0.5-0.6-0.9-1.3-1.2-2.1s-0.4-1.7-0.4-2.6
			c0-0.9,0.1-1.8,0.4-2.6c0.3-0.8,0.7-1.5,1.2-2.1s1.2-1.1,2-1.4c0.8-0.4,1.6-0.5,2.6-0.5c0.9,0,1.8,0.2,2.5,0.5
			c0.8,0.3,1.4,0.8,2,1.4c0.5,0.6,1,1.3,1.3,2.1c0.3,0.8,0.5,1.7,0.5,2.6S328.9,186.8,328.6,187.6z"/>
		<path d="M354,185c-1.3-1-3-1.6-5.3-2l-2.1-0.3c-0.5-0.1-0.9-0.2-1.3-0.2c-0.4-0.1-0.8-0.2-1.1-0.4c-0.3-0.2-0.5-0.4-0.7-0.6
			c-0.2-0.2-0.3-0.5-0.3-0.9c0-0.7,0.3-1.3,1-1.8c0.7-0.5,1.6-0.7,2.9-0.7c0.6,0,1.3,0.1,1.9,0.2s1.2,0.3,1.8,0.4
			c0.6,0.2,1.1,0.4,1.5,0.6c0.5,0.2,0.8,0.4,1.2,0.6l1.9-3.5c-1.1-0.7-2.3-1.2-3.8-1.6c-1.4-0.4-3-0.6-4.6-0.6
			c-1.3,0-2.5,0.2-3.6,0.5s-1.9,0.7-2.7,1.3c-0.7,0.6-1.3,1.3-1.7,2.1s-0.6,1.7-0.6,2.8c0,1.7,0.6,3,1.8,4c1.2,1,2.9,1.7,5.2,2
			l2.2,0.3c1.2,0.2,2.1,0.5,2.7,0.8c0.6,0.4,0.9,0.9,0.9,1.5c0,0.8-0.4,1.4-1.2,1.8c-0.8,0.5-2,0.7-3.5,0.7c-0.8,0-1.6-0.1-2.3-0.2
			c-0.7-0.1-1.3-0.3-1.8-0.5c-0.6-0.2-1.1-0.4-1.5-0.7s-0.8-0.5-1.2-0.8l-2.1,3.4c0.7,0.6,1.5,1,2.4,1.4c0.8,0.3,1.6,0.6,2.4,0.8
			c0.8,0.2,1.5,0.3,2.2,0.4c0.7,0.1,1.3,0.1,1.9,0.1c1.5,0,2.8-0.2,4-0.5c1.2-0.3,2.2-0.8,3-1.4c0.8-0.6,1.4-1.3,1.8-2.1
			c0.4-0.8,0.6-1.7,0.6-2.7C355.9,187.3,355.3,186,354,185z"/>
		<path d="M396.3,177.1c-0.9-1-1.9-1.7-3.1-2.2c-1.2-0.5-2.5-0.8-4-0.8s-2.9,0.3-4.2,0.8c-1.3,0.5-2.3,1.3-3.3,2.2
			c-0.9,1-1.6,2.1-2.1,3.4c-0.5,1.3-0.8,2.8-0.8,4.4c0,1.6,0.3,3.1,0.8,4.5c0.5,1.3,1.2,2.5,2.2,3.4c0.9,1,2.1,1.7,3.3,2.2
			c1.3,0.5,2.7,0.8,4.3,0.8s3.1-0.2,4.5-0.6c1.4-0.4,2.8-1.2,4-2.3l-2.2-3.2c-0.9,0.7-1.8,1.2-2.9,1.6c-1,0.4-2.1,0.6-3.1,0.6
			c-0.7,0-1.4-0.1-2.1-0.3c-0.7-0.2-1.3-0.5-1.8-0.9s-1-1-1.4-1.6c-0.4-0.7-0.7-1.5-0.8-2.4h15.3c0-0.3,0.1-0.5,0.1-0.8s0-0.6,0-0.9
			c0-1.6-0.2-3.1-0.7-4.4C397.8,179.2,397.2,178.1,396.3,177.1z M383.7,183.2c0.1-0.7,0.3-1.4,0.6-2.1c0.3-0.6,0.7-1.2,1.1-1.6
			c0.5-0.5,1-0.8,1.6-1s1.3-0.4,2.1-0.4c1.4,0,2.6,0.4,3.5,1.3s1.5,2.1,1.7,3.8H383.7z"/>
		<path d="M456.3,177.2c-0.7-0.9-1.6-1.7-2.7-2.2c-1.1-0.6-2.3-0.8-3.8-0.8s-2.8,0.3-4.1,0.8c-1.3,0.5-2.3,1.3-3.3,2.3
			c-0.9,1-1.7,2.1-2.2,3.4s-0.8,2.8-0.8,4.4s0.3,3,0.8,4.4c0.5,1.3,1.3,2.5,2.2,3.4c0.9,1,2,1.7,3.3,2.3c1.3,0.5,2.6,0.8,4.1,0.8
			s2.8-0.3,3.8-0.8s2-1.3,2.7-2.2v2.5h4.5v-20.7h-4.5V177.2z M456.1,187.6c-0.3,0.8-0.7,1.5-1.3,2.1c-0.5,0.6-1.2,1.1-2,1.4
			c-0.8,0.3-1.6,0.5-2.5,0.5c-1,0-1.9-0.2-2.6-0.5c-0.7-0.3-1.4-0.8-2-1.4c-0.5-0.6-0.9-1.3-1.2-2.1c-0.3-0.8-0.4-1.7-0.4-2.6
			c0-0.9,0.1-1.8,0.4-2.6s0.7-1.5,1.2-2.1s1.2-1.1,2-1.4c0.8-0.4,1.6-0.5,2.6-0.5c0.9,0,1.8,0.2,2.5,0.5c0.8,0.3,1.4,0.8,2,1.4
			c0.5,0.6,1,1.3,1.3,2.1c0.3,0.8,0.5,1.7,0.5,2.6S456.4,186.8,456.1,187.6z"/>
		<path d="M373.4,191.2c-0.7,0.3-1.4,0.4-2.1,0.4c-0.5,0-0.9-0.1-1.3-0.2s-0.7-0.4-1-0.7c-0.3-0.3-0.5-0.7-0.7-1.2
			c-0.2-0.5-0.3-1.1-0.3-1.8v-9h7.2v-4.1H368v-6.3h-4.5v6.3h-4.2v4.1h4.1v9.1c0,2.7,0.7,4.8,2,6.1c1.3,1.3,3.1,2,5.5,2
			c1.3,0,2.5-0.2,3.5-0.6c0.7-0.3,1.3-0.6,1.9-0.9l-1.5-3.8C374.3,190.8,373.9,191,373.4,191.2z"/>
		<path d="M414.1,174.1c-1.3,0-2.4,0.2-3.4,0.7s-1.9,1.6-2.6,2.6v-2.7H404v20.7h4.1V184c0-0.9,0.1-1.7,0.4-2.4
			c0.2-0.7,0.6-1.3,1-1.7c0.4-0.5,1-0.8,1.6-1.1c0.6-0.2,1.3-0.4,2-0.4c0.5,0,1.1,0.1,1.8,0.2c0.3,0.1,0.6,0.1,0.9,0.2l1.3-4.3
			c-0.4-0.1-0.7-0.2-1.1-0.3C415.5,174.2,414.8,174.1,414.1,174.1z"/>
		<path d="M476.9,174.1c-1.3,0-2.4,0.2-3.4,0.7s-1.9,1.6-2.6,2.6v-2.7h-4.1v20.7h4.1V184c0-0.9,0.1-1.7,0.4-2.4
			c0.2-0.7,0.6-1.3,1-1.7c0.4-0.5,1-0.8,1.6-1.1c0.6-0.2,1.3-0.4,2-0.4c0.5,0,1.1,0.1,1.8,0.2c0.3,0.1,0.6,0.1,0.9,0.2l1.3-4.3
			c-0.4-0.1-0.7-0.2-1.1-0.3C478.2,174.2,477.6,174.1,476.9,174.1z"/>
		<path d="M498,166.3v10.9c-0.7-0.9-1.6-1.7-2.7-2.2c-1.1-0.6-2.3-0.8-3.8-0.8s-2.8,0.3-4.1,0.8c-1.3,0.5-2.3,1.3-3.3,2.3
			c-0.9,1-1.7,2.1-2.2,3.4s-0.8,2.8-0.8,4.4s0.3,3,0.8,4.4c0.5,1.3,1.3,2.5,2.2,3.4c0.9,1,2,1.7,3.3,2.3c1.3,0.5,2.6,0.8,4.1,0.8
			s2.8-0.3,3.8-0.8c1.1-0.5,2-1.3,2.7-2.2v2.5h4.5v-29.1L498,166.3L498,166.3z M497.8,187.6c-0.3,0.8-0.7,1.5-1.3,2.1
			c-0.5,0.6-1.2,1.1-2,1.4c-0.8,0.3-1.6,0.5-2.5,0.5c-1,0-1.9-0.2-2.6-0.5c-0.8-0.4-1.4-0.8-2-1.4c-0.5-0.6-0.9-1.3-1.2-2.1
			c-0.3-0.8-0.4-1.7-0.4-2.6c0-0.9,0.1-1.8,0.4-2.6c0.3-0.8,0.7-1.5,1.2-2.1s1.2-1.1,2-1.4c0.8-0.4,1.6-0.5,2.6-0.5
			c0.9,0,1.8,0.2,2.5,0.5c0.8,0.3,1.4,0.8,2,1.4c0.5,0.6,1,1.3,1.3,2.1c0.3,0.8,0.5,1.7,0.5,2.6S498.1,186.8,497.8,187.6z"/>
		<path d="M424.9,180.2c0.6-0.6,1.3-1,2.1-1.4c0.8-0.3,1.6-0.5,2.6-0.5l0,0c1,0,2,0.2,2.8,0.5c0.8,0.3,1.6,0.7,2.2,1.3l2.2-3.6
			c-0.8-0.7-1.7-1.2-2.8-1.6c-1.4-0.6-2.8-0.8-4.4-0.8s-3.1,0.3-4.4,0.8c-1.4,0.6-2.5,1.3-3.5,2.3s-1.8,2.1-2.3,3.4
			c-0.6,1.3-0.8,2.8-0.8,4.3c0,1.6,0.3,3,0.8,4.3c0.6,1.3,1.3,2.5,2.3,3.4c1,1,2.2,1.7,3.5,2.3c1.4,0.6,2.8,0.8,4.4,0.8
			c1.6,0,3.1-0.3,4.4-0.8c1-0.4,1.9-0.9,2.8-1.6l-2.2-3.6c-0.6,0.6-1.3,1-2.2,1.3s-1.8,0.5-2.8,0.5l0,0c-0.9,0-1.8-0.2-2.6-0.5
			c-0.8-0.3-1.5-0.8-2.1-1.4c-0.6-0.6-1-1.3-1.4-2.1c-0.3-0.8-0.5-1.7-0.5-2.7s0.2-1.9,0.5-2.7C423.9,181.5,424.4,180.8,424.9,180.2
			z"/>
	</g>
	<g>
		<path d="M512,192.3c0.3,0,0.6,0.1,0.8,0.2c0.3,0.1,0.5,0.3,0.7,0.5c0.2,0.2,0.3,0.4,0.5,0.7c0.1,0.3,0.2,0.5,0.2,0.8
			s-0.1,0.6-0.2,0.8c-0.1,0.3-0.3,0.5-0.5,0.7c-0.2,0.2-0.4,0.3-0.7,0.5c-0.3,0.1-0.5,0.2-0.8,0.2c-0.3,0-0.6-0.1-0.9-0.2
			c-0.3-0.1-0.5-0.3-0.7-0.5c-0.2-0.2-0.3-0.4-0.5-0.7c-0.1-0.3-0.2-0.5-0.2-0.8s0.1-0.6,0.2-0.8c0.1-0.3,0.3-0.5,0.5-0.7
			c0.2-0.2,0.4-0.3,0.7-0.5C511.4,192.4,511.7,192.3,512,192.3z M512,196c0.2,0,0.4,0,0.6-0.1s0.3-0.2,0.5-0.3
			c0.1-0.1,0.2-0.3,0.3-0.5c0.1-0.2,0.1-0.4,0.1-0.6s0-0.4-0.1-0.6c-0.1-0.2-0.2-0.3-0.3-0.5c-0.1-0.1-0.3-0.2-0.5-0.3
			s-0.4-0.1-0.6-0.1c-0.2,0-0.4,0-0.6,0.1s-0.3,0.2-0.5,0.3c-0.1,0.1-0.2,0.3-0.3,0.5s-0.1,0.4-0.1,0.6c0,0.2,0,0.4,0.1,0.6
			c0.1,0.2,0.2,0.3,0.3,0.5c0.1,0.1,0.3,0.2,0.5,0.3C511.6,195.9,511.8,196,512,196z M512.1,193.5c0.3,0,0.5,0.1,0.6,0.2
			c0.1,0.1,0.2,0.3,0.2,0.5s0,0.3-0.1,0.4c-0.1,0.1-0.2,0.2-0.4,0.2l0.6,0.7h-0.7l-0.5-0.7h-0.1v0.7h-0.5v-1.9L512.1,193.5
			L512.1,193.5L512.1,193.5z M511.7,194v0.3h0.4c0.1,0,0.1,0,0.2,0l0.1-0.1c0-0.1,0-0.1-0.1-0.1c0,0-0.1,0-0.2,0L511.7,194
			L511.7,194z"/>
	</g>
	<g>
		<path class="st0" d="M359,78c0-24.8,11.6-46.8,29.6-61.1C375.3,6.3,358.5,0,340.3,0c-43.1,0-78,34.9-78,78s34.9,78,78,78
			c18.3,0,35.1-6.3,48.4-16.8C370.6,124.8,359,102.7,359,78z"/>
		<ellipse class="st1" cx="388.6" cy="78" rx="29.6" ry="61.1"/>
		<path class="st2" d="M509.7,120.1v-2.3h-0.9v-0.6h2.5v0.6h-1v2.3H509.7z M514.5,120.1v-2l-0.7,1.7h-0.7l-0.7-1.7v2h-0.7v-2.9h1
			l0.7,1.9l0.7-1.9h1v2.9H514.5z"/>
		<path class="st2" d="M437,0c-18.3,0-35.1,6.3-48.4,16.8c18,14.3,29.6,36.3,29.6,61.1s-11.6,46.8-29.6,61.1
			c13.3,10.5,30.1,16.8,48.4,16.8c43.1,0,78-34.9,78-78S480,0,437,0z"/>
	</g>
</g>
<g>
	
		<linearGradient id="SVGID_1_" gradientUnits="userSpaceOnUse" x1="582.296" y1="402.3819" x2="904.4051" y2="400.2628" gradientTransform="matrix(1 0 0 1 0 -302)">
		<stop  offset="0" style="stop-color:#262860"/>
		<stop  offset="1" style="stop-color:#3D429B"/>
	</linearGradient>
	<path class="st3" d="M906.2,152c-8.5,0-17.2,0-25.8,0c-0.9-4.6-2-9-2.8-13.5c-0.3-1.8-0.9-2.6-3-2.5c-10.4,0.1-20.7,0.1-31.1,0
		c-1.6,0-2.2,0.5-2.7,2c-1.5,4.2-3,8.5-4.6,12.7c-0.2,0.6-0.9,1.3-1.5,1.3c-9.3,0.1-18.7,0.1-28.3,0.1c1.8-4.2,3.4-8.2,5.1-12.3
		c12-28.7,24.1-57.4,36.2-86.2c2.7-6.2,6.6-8.8,13.3-8.8c7.5,0,15,0,22.7,0c0.8,3.5,1.5,7,2.2,10.4c6,28.4,11.8,56.8,17.8,85.2
		c0.8,3.6,1.6,7.2,2.5,10.9C906.2,151.5,906.2,151.8,906.2,152z M872.4,113.9c-2.7-13.2-5.4-26.2-8.2-39.3c-0.1,0-0.3-0.1-0.3-0.1
		c-4.7,13-9.4,26.1-14.2,39.3C857.4,113.9,864.8,113.9,872.4,113.9z"/>
	
		<linearGradient id="SVGID_2_" gradientUnits="userSpaceOnUse" x1="582.2911" y1="401.6475" x2="904.3995" y2="399.5284" gradientTransform="matrix(1 0 0 1 0 -302)">
		<stop  offset="0" style="stop-color:#262860"/>
		<stop  offset="1" style="stop-color:#3D429B"/>
	</linearGradient>
	<path class="st4" d="M793.7,42.9c3.4,0.6,6.8,1.1,10.2,2c3.1,0.7,6.1,1.7,9.4,2.7c-1.6,7.7-3.2,15.3-4.8,22.6
		c-4.3-1.3-8.4-2.7-12.7-3.7c-5.8-1.3-11.8-1.8-17.5-0.1c-2.3,0.6-4.7,1.9-6.6,3.5c-3.2,2.7-3.2,6.6-0.2,9.5c2.1,2,4.6,3.6,7.1,5.1
		c5.6,3.4,11.6,6.3,17.1,10c6.5,4.3,11.2,10.1,12.2,18.1c1.8,14.1-3.4,25.1-15.3,33c-7.4,4.9-15.8,7.2-24.6,7.9
		c-12.2,1.1-24.2-0.3-35.9-4.1c-0.8-0.3-1.5-0.6-2.3-0.9c-0.3-0.1-0.4-0.3-0.8-0.5c1.6-7.7,3.3-15.4,5-23.4c2,0.9,3.9,1.7,5.8,2.5
		c9.1,3.7,18.6,5.4,28.3,3.5c2.5-0.5,5.1-1.6,7.3-3c4.7-3.1,5.1-9,0.9-12.7c-2.8-2.4-6.1-4.2-9.4-6.1c-5-3-10.3-5.6-15-9
		c-6-4.4-10.4-10.1-11.3-17.9c-1.3-11.5,3-20.9,11.9-28.2c7.7-6.3,16.8-9.2,26.6-10.3c0.6-0.1,1.1-0.3,1.6-0.4
		C785,42.9,789.4,42.9,793.7,42.9z"/>
	
		<linearGradient id="SVGID_3_" gradientUnits="userSpaceOnUse" x1="582.2841" y1="400.607" x2="904.3931" y2="398.4879" gradientTransform="matrix(1 0 0 1 0 -302)">
		<stop  offset="0" style="stop-color:#262860"/>
		<stop  offset="1" style="stop-color:#3D429B"/>
	</linearGradient>
	<path class="st5" d="M693.3,44.9c-1.5,3.5-2.8,6.8-4.2,10.1c-13.3,31.7-26.6,63.4-39.8,95.2c-0.6,1.5-1.4,1.9-2.9,1.9
		c-8.4-0.1-16.8-0.1-25.2,0c-1.8,0-2.3-0.6-2.8-2.2c-7.1-27.7-14.4-55.4-21.4-83.1c-1.3-5.1-3.9-8.5-8.7-10.7
		c-7.8-3.4-15.8-5.8-24.1-7.8c-0.3-0.1-0.7-0.2-1-0.3c0.1-3.2,0.1-3.2,3.1-3.2c14.7,0,29.4,0,44.1,0c7,0,12,4.1,13.3,11
		c3.7,19.5,7.3,39.1,11.1,58.6c0.2,0.8,0.3,1.7,0.6,2.9c0.4-0.7,0.6-1.1,0.8-1.6c9.1-23,18.2-46.1,27.3-69.2
		c0.5-1.3,1.1-1.7,2.5-1.6c8.5,0.1,17,0,25.6,0C691.9,44.8,692.5,44.9,693.3,44.9z"/>
	
		<linearGradient id="SVGID_4_" gradientUnits="userSpaceOnUse" x1="582.2896" y1="401.4646" x2="904.3986" y2="399.3455" gradientTransform="matrix(1 0 0 1 0 -302)">
		<stop  offset="0" style="stop-color:#262860"/>
		<stop  offset="1" style="stop-color:#3D429B"/>
	</linearGradient>
	<path class="st6" d="M682.1,152.1c7.7-35.8,15.3-71.4,22.9-107.1c9.3,0,18.5,0,27.8,0c-1.1,5.4-2.3,10.8-3.4,16.1
		c-6.3,29.5-12.6,58.9-18.9,88.5c-0.4,2-1.1,2.7-3.3,2.7c-7.6-0.1-15.3-0.1-22.9-0.1C683.7,152.1,683,152.1,682.1,152.1z"/>
</g>
<g>
	<path class="st7" d="M59.1,142.2L30.6,85.7c-4.2-8.4-34.4,6.9-30.2,15.2l43.5,86.4c2.9,5.7,8.7,9.3,15.1,9.3l0,0
		c6.4,0,12.2-3.6,15.1-9.3l8.9-17.8l-19-37.5L59.1,142.2z"/>
	<path class="st7" d="M142.4,52.4c4.2-8.4-26-23.6-30.2-15.2L89,82.6l19,37.4L142.4,52.4z"/>
	<path class="st7" d="M183.7,2.5L113.1,142L72.9,62.6c-4.2-8.4-34.4,6.9-30.2,15.2l55.2,109.3c2.9,5.7,8.7,9.3,15.1,9.3l0,0
		c6.4,0,12.2-3.6,15.1-9.3l85.7-169.4C218,9.4,187.9-5.9,183.7,2.5z"/>
</g>
</svg>
