<?xml version="1.0" encoding="utf-8"?>
<!-- Generator: Adobe Illustrator 23.0.6, SVG Export Plug-In . SVG Version: 6.00 Build 0)  -->
<svg version="1.1" id="Camada_1" xmlns="http://www.w3.org/2000/svg" xmlns:xlink="http://www.w3.org/1999/xlink" x="0px" y="0px"
	 viewBox="0 0 233 237" style="enable-background:new 0 0 233 237;" xml:space="preserve">
<style type="text/css">
	.st0{fill:none;}
	.st1{fill:none;stroke:#8D1C22;stroke-width:6;}
	.st2{fill:#8D1C22;}
	.st3{fill:none;stroke:#FFFFFF;stroke-width:5;stroke-linecap:round;stroke-linejoin:round;}
</style>
<g id="Group_322" transform="translate(-832 -216)">
	<g id="Group_321">
		<g id="Ellipse_54" transform="translate(832 216)">
			<circle class="st0" cx="116.5" cy="116.5" r="116.5"/>
			<circle class="st1" cx="116.5" cy="116.5" r="113.5"/>
		</g>
		<g id="tickets" transform="translate(874.996 263.996)">
			<g id="Group_319" transform="translate(0.004 0.004)">
				<g id="Group_318" transform="translate(0 0)">
					<path id="Path_262" class="st2" d="M146.9,54.1L129.9,2c-0.5-1.5-2.1-2.3-3.6-1.8c0,0,0,0,0,0L2,40.5c-1.5,0.5-2.3,2.1-1.8,3.6
						c0,0,0,0,0,0l8,24.7v55c0,1.6,1.3,2.9,2.9,2.9h130.7c1.6,0,2.9-1.3,2.9-2.9V69c0-1.6-1.3-2.9-2.9-2.9h-22.5l25.8-8.4
						C146.5,57.2,147.3,55.6,146.9,54.1z M138.9,71.9v49.1h-125V71.9h15.9v32c0,1.6,1.3,2.9,2.9,2.9c1.6,0,2.9-1.3,2.9-2.9v-32
						L138.9,71.9L138.9,71.9z M100.7,66.1H13.3l-6.8-21l15.1-4.9l5.8,17.6c0.4,1.2,1.5,2,2.7,2c0.3,0,0.6-0.1,0.9-0.1
						c1.5-0.5,2.3-2.1,1.8-3.6l-5.8-17.6l98.2-32l15.2,46.7L100.7,66.1z"/>
					<path id="Path_263" class="st2" d="M121,19.1c-0.5-1.5-2.1-2.3-3.6-1.8c0,0,0,0,0,0L42.5,41.5c-1.5,0.5-2.3,2.1-1.8,3.6
						c0,0,0,0,0,0c0.4,1.2,1.5,2,2.7,2c0.3,0,0.6-0.1,0.9-0.1l74.8-24.3C120.7,22.2,121.5,20.6,121,19.1z"/>
					<path id="Path_264" class="st2" d="M108.4,37.7l14.2-4.6c1.5-0.5,2.3-2.1,1.8-3.6c-0.5-1.5-2.1-2.3-3.6-1.8l0,0l-14.2,4.6
						c-1.5,0.5-2.3,2.1-1.8,3.6c0,0,0,0,0,0c0.4,1.2,1.5,2,2.7,2C107.8,37.9,108.1,37.8,108.4,37.7z"/>
					<path id="Path_265" class="st2" d="M120.3,50.9c0.4,1.2,1.5,2,2.7,2c0.3,0,0.6-0.1,0.9-0.1l4.5-1.5c1.5-0.5,2.3-2.1,1.8-3.6
						c-0.5-1.5-2.1-2.3-3.6-1.8l-4.5,1.5C120.7,47.8,119.8,49.4,120.3,50.9z"/>
					<path id="Path_266" class="st2" d="M112.2,50.6l-4.5,1.5c-1.5,0.5-2.3,2.1-1.8,3.6c0,0,0,0,0,0c0.4,1.2,1.5,2,2.7,2
						c0.3,0,0.6-0.1,0.9-0.1L114,56c1.5-0.5,2.3-2.1,1.8-3.6C115.3,50.9,113.7,50.1,112.2,50.6L112.2,50.6L112.2,50.6z"/>
					<path id="Path_267" class="st2" d="M72.1,43.5L45.9,52c-1.5,0.5-2.3,2.1-1.8,3.6c0,0,0,0,0,0c0.4,1.2,1.5,2,2.7,2
						c0.3,0,0.6-0.1,0.9-0.1l26.2-8.5c1.5-0.5,2.3-2.1,1.8-3.6C75.2,43.8,73.6,43,72.1,43.5z"/>
					<path id="Path_268" class="st2" d="M32.7,110.5c-1.6,0-2.9,1.3-2.9,2.9v1.1c0,1.6,1.3,2.9,2.9,2.9c1.6,0,2.9-1.3,2.9-2.9
						c0,0,0,0,0,0v-1.1C35.5,111.8,34.3,110.5,32.7,110.5z"/>
					<path id="Path_269" class="st2" d="M46.4,82.5c0,1.6,1.3,2.9,2.9,2.9H128c1.6,0,2.9-1.3,2.9-2.9s-1.3-2.9-2.9-2.9H49.3
						C47.7,79.6,46.4,80.9,46.4,82.5C46.4,82.4,46.4,82.4,46.4,82.5z"/>
					<path id="Path_270" class="st2" d="M128,90.6h-14.9c-1.6,0-2.9,1.3-2.9,2.9s1.3,2.9,2.9,2.9H128c1.6,0,2.9-1.3,2.9-2.9
						S129.5,90.6,128,90.6z"/>
					<path id="Path_271" class="st2" d="M128,109.7h-4.7c-1.6,0-2.9,1.3-2.9,2.9s1.3,2.9,2.9,2.9h4.7c1.6,0,2.9-1.3,2.9-2.9
						S129.5,109.7,128,109.7z"/>
					<path id="Path_272" class="st2" d="M112.7,109.7H108c-1.6,0-2.9,1.3-2.9,2.9s1.3,2.9,2.9,2.9h4.7c1.6,0,2.9-1.3,2.9-2.9
						S114.3,109.7,112.7,109.7L112.7,109.7z"/>
					<path id="Path_273" class="st2" d="M76.8,90.6H49.2c-1.6,0-2.9,1.3-2.9,2.9s1.3,2.9,2.9,2.9h27.6c1.6,0,2.9-1.3,2.9-2.9
						S78.4,90.6,76.8,90.6z"/>
				</g>
			</g>
		</g>
	</g>
	<g id="Group_238" transform="translate(0.402 -0.098)">
		<circle class="st2" cx="1014" cy="410.5" r="42.3"/>
		<g id="close" transform="translate(4.607 5.107)">
			<line id="Line_22" class="st3" x1="1022.7" y1="392.1" x2="996.1" y2="418.7"/>
			<line id="Line_23" class="st3" x1="996.1" y1="392.1" x2="1022.7" y2="418.7"/>
		</g>
	</g>
</g>
</svg>
