<?xml version="1.0" encoding="utf-8"?>
<!-- Generator: Adobe Illustrator 23.0.6, SVG Export Plug-In . SVG Version: 6.00 Build 0)  -->
<svg version="1.1" id="Camada_1" xmlns="http://www.w3.org/2000/svg" xmlns:xlink="http://www.w3.org/1999/xlink" x="0px" y="0px"
	 viewBox="0 0 30 30" style="enable-background:new 0 0 30 30;" xml:space="preserve">
<style type="text/css">
	.st0{fill:none;}
	.st1{fill:none;stroke:#38706D;stroke-width:2;}
	.st2{fill:#38706D;}
</style>
<g>
	<g id="Ellipse_2">
		<circle class="st0" cx="15" cy="15" r="15"/>
		<circle class="st1" cx="15" cy="15" r="14"/>
	</g>
	<path id="information" class="st2" d="M17.4,19.2c0-0.1-0.1-0.1-0.2-0.1c0,0,0,0,0,0c-0.7,0.4-1.5,0.7-2.2,1c0,0,0,0,0,0
		c0,0,0,0,0,0c0,0,0-0.1,0-0.2c0.3-1.6,0.7-3.3,1.2-4.8c0.3-0.9,0.6-1.9,0.7-2.9c0-0.2-0.1-0.4-0.3-0.6c-0.2-0.1-0.4-0.2-0.7-0.2
		c-0.6,0-1.2,0.2-1.7,0.6c-0.8,0.5-1.5,1.1-2.1,1.8c0,0.1-0.1,0.2,0,0.3c0.1,0.1,0.2,0.1,0.2,0.1c0.3-0.1,1.6-0.7,1.8-0.8
		c0.1-0.1,0.3-0.1,0.4-0.2l0,0v0c0,0.1,0,0.3-0.1,0.4c-1.2,3.8-1.7,6.1-1.7,7.1c0,0.3,0.1,0.6,0.3,0.8c0.2,0.2,0.5,0.3,0.8,0.3
		c0.4,0,0.9-0.2,1.3-0.4c0.8-0.6,1.6-1.2,2.3-1.9C17.5,19.4,17.5,19.3,17.4,19.2z M17.4,8.3C17.2,8.1,16.9,8,16.7,8
		c-0.4,0-0.7,0.2-0.9,0.4c-0.2,0.3-0.4,0.6-0.4,1c0,0.3,0.1,0.6,0.3,0.8c0.2,0.2,0.4,0.3,0.7,0.3c0.4,0,0.7-0.2,0.9-0.4
		c0.3-0.3,0.4-0.6,0.4-1C17.7,8.8,17.6,8.5,17.4,8.3z"/>
</g>
</svg>
