<?xml version="1.0" encoding="utf-8"?>
<!-- Generator: Adobe Illustrator 23.0.6, SVG Export Plug-In . SVG Version: 6.00 Build 0)  -->
<svg version="1.1" id="Camada_1" xmlns="http://www.w3.org/2000/svg" xmlns:xlink="http://www.w3.org/1999/xlink" x="0px" y="0px"
	 viewBox="0 0 24 24" style="enable-background:new 0 0 24 24;" xml:space="preserve">
<style type="text/css">
	.st0{fill:#1D1D1B;}
	.st1{fill:none;}
	.st2{fill:none;stroke:#1D1D1B;}
</style>
<g id="Group_100" transform="translate(0.365 0.202)">
	<path id="Union_1" class="st0" d="M10.8,18.2v-5.6H5.2c-0.9,0-1.6-0.7-1.6-1.6c0,0,0,0,0,0h7.2V3.8c0.9,0,1.6,0.7,1.6,1.6
		c0,0,0,0,0,0V11H18c0.9,0,1.6,0.7,1.6,1.6l0,0h-7.2v7.2C11.6,19.8,10.8,19.1,10.8,18.2C10.8,18.2,10.8,18.2,10.8,18.2z"/>
	<g id="Ellipse_7" transform="translate(-0.366 -0.202)">
		<circle class="st1" cx="12" cy="12" r="12"/>
		<circle class="st2" cx="12" cy="12" r="11.5"/>
	</g>
</g>
</svg>
