<?xml version="1.0" encoding="utf-8"?>
<!-- Generator: Adobe Illustrator 23.0.6, SVG Export Plug-In . SVG Version: 6.00 Build 0)  -->
<svg version="1.1" id="Capa_1" xmlns="http://www.w3.org/2000/svg" xmlns:xlink="http://www.w3.org/1999/xlink" x="0px" y="0px"
	 viewBox="0 0 321.8 452.1" style="enable-background:new 0 0 321.8 452.1;" xml:space="preserve">
<style type="text/css">
	.st0{fill:none;stroke:#FFFFFF;stroke-width:20;stroke-miterlimit:10;}
</style>
<g>
	<path class="st0" d="M45.2,64c27.7-33,69.3-54,115.7-54c15.9,0,31.2,2.5,45.6,7l0,0c38.3,12.1,70,39.1,88.3,74.2l0,0l0,0
		c10.9,20.8,17,44.5,17,69.7c0,1.4,0,2.9-0.1,4.3C309,278.7,199.1,328.7,175.9,426.5c-0.3,1.2-0.6,2.5-0.9,4.1
		c-3.1,15.3-25,15.3-28.1,0c-0.3-1.5-0.6-2.9-0.9-4.1c-8.7-36.7-29.6-66.6-52.5-95.7l0,0c-24.7-31.3-51.6-61.7-68-98.4l0,0
		c-9-20.1-14.8-42-15.4-67.1c0-1.4-0.1-2.9-0.1-4.3C10,124,23.2,90.2,45.2,64"/>
	<circle class="st0" cx="160.9" cy="157.2" r="82.9"/>
</g>
</svg>
