<?xml version="1.0" encoding="utf-8"?>
<!-- Generator: Adobe Illustrator 23.0.6, SVG Export Plug-In . SVG Version: 6.00 Build 0)  -->
<svg version="1.1" id="Layer_1" xmlns="http://www.w3.org/2000/svg" xmlns:xlink="http://www.w3.org/1999/xlink" x="0px" y="0px"
	 viewBox="0 0 1667.4 354.9" style="enable-background:new 0 0 1667.4 354.9;" xml:space="preserve">
<style type="text/css">
	.Arched_x0020_Green{fill:url(#SVGID_1_);stroke:#FFFFFF;stroke-width:0.25;stroke-miterlimit:1;}
	.st0{fill-rule:evenodd;clip-rule:evenodd;fill:#1866AC;}
</style>
<linearGradient id="SVGID_1_" gradientUnits="userSpaceOnUse" x1="-6.1868" y1="651.4448" x2="-5.4796" y2="650.7377">
	<stop  offset="0" style="stop-color:#259E2E"/>
	<stop  offset="0.9831" style="stop-color:#1C381D"/>
</linearGradient>
<g>
	<g>
		<path d="M687.4,254.9L687.4,254.9L687.4,254.9c16.8-0.1,32-6.9,43-17.9c11.1-11.1,17.9-26.3,17.9-43.1h0.1v0v-73.4
			c0-7.5-6.1-13.6-13.6-13.6c-7.5,0-13.5,6.1-13.5,13.6v73.4v0h0c0,9.3-3.8,17.7-10,23.9c-6.1,6.2-14.6,10-23.9,10v-0.1h0h0v0.1
			c-9.3,0-17.7-3.8-23.9-10c-6.2-6.2-10-14.6-10-23.9h0.1v0v-73.4c0-7.5-6.1-13.6-13.6-13.6c-7.5,0-13.6,6.1-13.6,13.6v73.4v0h0.1
			c0,16.8,6.8,32,17.8,43C655.3,248,670.6,254.9,687.4,254.9L687.4,254.9L687.4,254.9z"/>
		<path d="M849.5,254.9c7.5,0,13.6-6.1,13.6-13.6c0-7.5-6.1-13.6-13.6-13.6H812v0.1c-6.5,0-12.5-2.7-16.9-7
			c-4.4-4.4-7.1-10.3-7.1-16.9h0.1v0v-83.3c0-7.5-6.1-13.6-13.6-13.6c-7.5,0-13.5,6.1-13.5,13.6v83.3v0h0c0,14,5.7,26.8,14.9,36
			c9.2,9.2,22,15,36.1,15v0H849.5z"/>
		<path d="M448.2,254.8c7.4,0.9,14.2-4.4,15.1-11.9l11.6-97.8l41.5,96.2c1.3,3.1,3.8,5.7,7.1,7.1c6.9,3,14.9-0.2,17.8-7.1l41.4-96.2
			l11.7,97.8c0.9,7.4,7.6,12.7,15.1,11.9c7.4-0.9,12.7-7.6,11.8-15.1l-13.5-113.5l0-0.1c-0.1-0.6-0.2-1.2-0.3-1.8
			c-0.2-0.9-0.4-1.8-0.7-2.7c-0.5-1.4-1.1-2.7-1.8-3.9c-3.5-5.8-9.6-9.9-16.9-10.9H588v0l-0.1,0c-0.3,0-0.7-0.1-1-0.1l-0.1,0
			c-1-0.1-1.9-0.1-2.9,0c-1.3,0.1-2.7,0.3-4,0.5c-7,1.5-13,6.1-15.9,12.9l-35.1,81.5l-35.2-81.5c-0.2-0.5-0.5-1-0.7-1.5
			c-0.5-0.9-1-1.7-1.6-2.6c-0.9-1.2-1.8-2.2-2.8-3.2c-4.9-4.6-11.9-6.9-19-6l-0.1,0h-0.1l0,0c-1.5,0.2-2.9,0.5-4,0.9
			c-0.3,0.1-0.7,0.2-1.1,0.4c-0.9,0.3-1.8,0.7-2.6,1.2c-6.5,3.3-11,9.4-11.9,16.8l-13.5,113.5C435.5,247.2,440.8,254,448.2,254.8z"
			/>
		<path d="M895.3,254.9c7.5,0,13.6-6.1,13.6-13.6V134.1h38.6c7.5,0,13.6-6.1,13.6-13.6c0-7.5-6.1-13.6-13.6-13.6h-52.2h-52.2
			c-7.5,0-13.6,6.1-13.6,13.6c0,7.5,6.1,13.6,13.6,13.6h38.6v107.3C881.7,248.9,887.8,254.9,895.3,254.9z"/>
		<path d="M966.4,120.5v120.8c0,7.5,6.1,13.6,13.6,13.6c7.5,0,13.6-6.1,13.6-13.6V120.5c0-7.5-6.1-13.6-13.6-13.6
			C972.5,107,966.4,113,966.4,120.5z"/>
		<path d="M1179.7,191.1c0,7.5,6.1,13.6,13.6,13.6h47l4.8,38.3c0.9,7.4,7.7,12.7,15.1,11.8c7.4-0.9,12.7-7.7,11.8-15.1l-9.4-75.5
			v-0.1c-0.1-0.4-0.1-0.9-0.2-1.3c-0.5-3.9-1.4-7.6-2.4-11.1c-1.2-3.9-2.7-7.7-4.6-11.5c-9.8-19.6-28.1-33.4-51.6-33.4h-0.1v0.1
			c-4.6,0-9,0.5-13.2,1.6c-4.3,1-8.3,2.5-12,4.4c-18.6,9.5-31,29.2-33.5,51.5l-8.5,75.5c-0.8,7.4,4.6,14.1,12,15
			c7.4,0.8,14.1-4.6,15-12l8.5-75.5c1.5-13.4,8.5-24.9,18.9-30.3c2-1,4-1.8,6.1-2.3c2.2-0.5,4.5-0.8,6.9-0.8v0h0.1
			c12.3,0,22.1,7.5,27.5,18.3c1.1,2.1,2,4.5,2.8,7.2c0.7,2.3,1.2,4.7,1.6,6.9c0,0.3,0,0.6,0.1,1v0.1l1.3,10h-43.7
			C1185.7,177.5,1179.7,183.6,1179.7,191.1z"/>
		<path d="M1407.3,250.4c0.4-0.1,0.8-0.3,1.1-0.4l0,0l0.1-0.1c0.6-0.3,1.2-0.5,1.7-0.8c1-0.5,1.9-1.2,2.8-1.9
			c4.4-3.6,7.1-9,7.1-14.9V120.5c0-7.5-6.1-13.6-13.6-13.6s-13.6,6.1-13.6,13.6v88.9l-72.2-92.1c-3.6-4.6-8.8-7.1-14.4-7.4h-0.3
			h-0.1c-1.3,0-2.4,0-3.3,0.2v0l-0.1,0c-0.5,0.1-1,0.2-1.4,0.3c-0.6,0.1-1.3,0.3-1.9,0.5c-4.6,1.6-8.3,4.8-10.6,8.9h0l0,0
			c-0.4,0.9-0.8,1.7-1.1,2.4l0,0v0c-0.5,1.4-0.9,2.9-1.1,4.4c-0.1,0.8-0.2,1.5-0.2,2.3v0v112.3c0,7.5,6.1,13.6,13.6,13.6
			c7.5,0,13.6-6.1,13.6-13.6V152l72.3,92.1l0.1,0.2h0l0,0l0.5,0.5c0.6,0.7,1.2,1.3,1.7,1.8c0.9,0.8,1.8,1.5,2.7,2
			c0.6,0.3,1.2,0.7,1.8,0.9c4.5,2.2,9.6,2.5,14.6,0.8L1407.3,250.4L1407.3,250.4L1407.3,250.4L1407.3,250.4z"/>
		<path d="M1485.6,134.1h40c7.5,0,13.6-6.1,13.6-13.6c0-7.5-6.1-13.6-13.6-13.6h-40h0v0.1c-14.7,0-28.1,6-37.8,15.6
			c-9.7,9.7-15.7,23.1-15.7,37.8h-0.1v0v40.8v0h0.1c0,14.7,6,28.1,15.7,37.8c9.7,9.7,23.1,15.7,37.8,15.7v0h40
			c7.5,0,13.6-6.1,13.6-13.6c0-7.5-6.1-13.6-13.6-13.6h-40v0c-7.2,0-13.8-3-18.6-7.8c-4.8-4.8-7.8-11.4-7.8-18.7h0.1v0v-40.8v0h-0.1
			c0-7.2,3-13.8,7.8-18.6C1471.7,137.1,1478.3,134.1,1485.6,134.1L1485.6,134.1L1485.6,134.1z"/>
		<path d="M1604.1,107L1604.1,107L1604.1,107L1604.1,107c-17.4,0-33.1,6.8-44.5,17.8c-11.6,11.1-18.7,26.5-18.7,43.5h-0.1v0v25.3v0
			h0.1c0,17,7.2,32.4,18.7,43.5c11.4,11,27.2,17.8,44.5,17.8v0h0h0v0c17.3,0,33-6.8,44.4-17.8c11.6-11.1,18.8-26.5,18.8-43.5h0v0
			v-25.3v0h0c0-17-7.2-32.4-18.7-43.5C1637.2,113.8,1621.5,107,1604.1,107z M1640.3,193.6c0,9.3-4,17.8-10.5,24
			c-6.6,6.3-15.7,10.3-25.7,10.3v0h0h0v0c-10,0-19.1-3.9-25.7-10.3c-6.4-6.2-10.4-14.7-10.5-23.9h0.1v0v-25.3v0h-0.1
			c0-9.3,4-17.8,10.5-24c6.6-6.3,15.7-10.3,25.7-10.3v0h0.1v0c10,0,19.1,3.9,25.7,10.3c6.4,6.2,10.4,14.7,10.5,23.9h-0.1v0
			L1640.3,193.6L1640.3,193.6L1640.3,193.6z"/>
		<path d="M1071.4,107h-52.3h0v0c-0.3,0-0.5,0-0.8,0c-3.6,0.2-6.6,1.7-8.9,3.9l0,0l-0.2,0.2c-1.3,1.3-2.4,2.9-3.1,4.7
			c-0.7,1.6-1.1,3.5-1.1,5.4l0,0v59v61.3c0,7.5,6.1,13.6,13.5,13.6h66h0v0c12.2,0,23.2-5,31.2-12.9c8-8,13-19.1,13-31.2h0.1l0,0
			v-0.1h-0.1c0-11.7-4.6-22.4-12.1-30.3c-0.3-0.3-0.5-0.6-0.8-0.9c-2.3-2.3-4.9-4.4-7.7-6.1c4.2-6.7,6.7-14.6,6.7-23h0.1l0,0v0h-0.1
			c0-11.9-4.9-22.7-12.7-30.5C1094.2,111.9,1083.3,107,1071.4,107L1071.4,107L1071.4,107z M1082.8,138.8c3,3,4.8,7,4.8,11.5h-0.1v0
			l0,0h0.1c0,4.5-1.8,8.5-4.8,11.4l0,0l0,0c-2.7,2.7-6.3,4.5-10.2,4.8h-1.2h-0.1h-5c-7.5,0-13.6,6.1-13.6,13.6
			c0,7.5,6.1,13.6,13.6,13.6h5h0.1h13.1v0c4.6,0,8.9,1.9,12,5.1l0.5,0.5c2.8,3.1,4.6,7.1,4.6,11.5h-0.1v0.1l0,0h0.1
			c0,4.7-1.9,8.9-5,12c-3.1,3.1-7.4,5.1-12,5.1v0h0H1032v-47.7v-46h39.3h0v0C1075.9,134.1,1079.9,135.9,1082.8,138.8z"/>
	</g>
	<g>
		<path d="M300.2,92.2h-63.9c-7,0-12.8,5.8-12.8,12.8v145.9c0,6.7,5.9,12.2,13,12.2h76.7c27.4,0,49.7-21,49.7-46.6
			c0-18.2-11.3-34-27.6-41.7c8.5-8.8,13.7-20.7,13.7-33.8C349.1,114.2,327.1,92.2,300.2,92.2z M336.1,213.8
			c0,13.1-10.8,23.9-23.9,23.9H250v-121h49c12.7,0,23.2,10.4,23.2,23.1c0,11.5-8.6,21.2-19.6,22.9v0.3h-24.4
			c-7.4,0-13.4,6-13.4,13.4c0,7.4,6,13.4,13.4,13.4h24.4v0.1h9.6C325.3,189.9,336.1,200.6,336.1,213.8z"/>
		<path d="M20.6,265.5c8.4,0.9,16-5.2,16.9-13.7l12.6-116l44.7,113.5l0.1,0.2l0,0.1l0.1,0.2l0.1,0.2l0.1,0.2l0.1,0.2l0.1,0.2l0,0.1
			l0.1,0.3l0,0l0.1,0.2l0.1,0.1c0.5,0.8,1,1.6,1.6,2.4l0.1,0.1c0.1,0.2,0.3,0.3,0.5,0.5l0,0c0.1,0.1,0.2,0.3,0.4,0.4
			c0.1,0.1,0.3,0.2,0.4,0.4v0c0.2,0.2,0.3,0.3,0.5,0.5l0.1,0c0.7,0.6,1.5,1.2,2.4,1.6l0.1,0.1l0.2,0.1l0,0l0.3,0.1l0.1,0.1l0.2,0.1
			l0.2,0.1l0.2,0.1l0.2,0.1l0.2,0.1l0.1,0l0.2,0.1c1.7,0.6,3.4,1,5,1l0.2,0l0.2,0h0.2h0.2l0.2,0l0.2,0c1.5-0.1,3-0.3,4.5-0.9l0.1,0
			l0.2-0.1l0.1,0l0.1,0l0.1-0.1l0.2-0.1l0.2-0.1l0.2-0.1l0.2-0.1l0.2-0.1l0.2-0.1l0.1-0.1l0.3-0.1l0,0l0.3-0.2l0.1,0
			c1-0.5,1.9-1.2,2.7-1.9l0.2-0.2l0,0c1.2-1.1,2.3-2.5,3.1-4.1l0.1-0.1l0.1-0.2l0.1-0.1l0.1-0.2l0.1-0.1l0.1-0.2l0-0.1l0.1-0.2
			l0.1-0.3v0v0l0-0.1l44.6-113.4l12.6,116c0.9,8.5,8.5,14.6,16.9,13.7c8.4-0.9,14.6-8.5,13.7-16.9l-14.9-136.8l0,0l0-0.1h0
			c-0.2-1.6-0.5-3.2-1-4.7c-0.5-1.5-1.1-3-1.9-4.4c-3.8-7.1-10.8-12.1-19.1-13.3l0,0c-0.3,0-0.6-0.1-0.8-0.1
			c-1.3-0.1-2.6-0.2-3.9-0.1l-0.1,0v0c-1.7,0.1-3.2,0.3-4.7,0.6c-8,1.9-14.7,7.4-17.9,15.5l-38,96.6l-38-96.6
			c-3.2-8.1-9.9-13.6-17.9-15.5c-1.4-0.3-3-0.5-4.6-0.6v0l-0.1,0c-1.3-0.1-2.6,0-3.9,0.1c-0.3,0-0.6,0.1-0.8,0.1l0,0
			c-8.3,1.2-15.3,6.2-19.1,13.3c-0.8,1.5-1.4,2.9-1.9,4.4c-0.5,1.6-0.8,3.1-1,4.7h0l0,0.1v0L6.9,248.5C6,257,12.1,264.6,20.6,265.5z
			"/>
		<g>
			<path class="st0" d="M75.9,0h223.6h11.8c16.5,0,30.1,14.3,30.1,31.8V47c0,21.5-29.1,21.4-29.1,0.1v-8.3c0-5.3-4.3-9.6-9.6-9.6
				l-235.9,0c-5.3,0-9.6,4.3-9.6,9.6V47c0,21.4-27.8,21.2-27.8,0.5V31.8C29.4,14.3,42.9,0,59.4,0H75.9L75.9,0z M183.8,354.9h152.7
				c34.9,0,35.2-37.1,31.7-55.4c-1.9-12.3-22.8-12.2-25.1,0v14.3c0,6.5-5.3,11.9-11.9,11.9H183.8H172H38.4
				c-6.5,0-11.9-5.3-11.9-11.9v-14.3c-2.3-12.2-23.2-12.3-25.1,0c-3.5,18.3-3.2,55.4,31.7,55.4H172H183.8z"/>
		</g>
	</g>
</g>
</svg>
