<?xml version="1.0" encoding="utf-8"?>
<!-- Generator: Adobe Illustrator 23.0.6, SVG Export Plug-In . SVG Version: 6.00 Build 0)  -->
<svg version="1.1" id="Layer_1" xmlns="http://www.w3.org/2000/svg" xmlns:xlink="http://www.w3.org/1999/xlink" x="0px" y="0px"
	 viewBox="0 0 595.3 841.9" style="enable-background:new 0 0 595.3 841.9;" xml:space="preserve">
<style type="text/css">
	.Arched_x0020_Green{fill:url(#SVGID_1_);stroke:#FFFFFF;stroke-width:0.25;stroke-miterlimit:1;}
	.st0{fill:#FFFFFF;}
	.st1{fill-rule:evenodd;clip-rule:evenodd;fill:#FFFFFF;}
</style>
<linearGradient id="SVGID_1_" gradientUnits="userSpaceOnUse" x1="0" y1="841.8906" x2="0.7071" y2="841.1835">
	<stop  offset="0" style="stop-color:#259E2E"/>
	<stop  offset="0.9831" style="stop-color:#1C381D"/>
</linearGradient>
<path class="st0" d="M470.9,227.6h-96.6c-10.7,0-19.4,8.7-19.4,19.4v220.7c0,10.2,8.9,18.5,19.7,18.5h116
	c41.4,0,75.3-31.7,75.3-70.5c0-27.5-17-51.5-41.7-63.1c12.8-13.3,20.7-31.3,20.7-51.1C544.8,260.8,511.5,227.6,470.9,227.6z
	 M525.2,411.5c0,19.9-16.3,36.2-36.2,36.2h-94.1V264.5h74.2c19.3,0,35,15.8,35,35c0,17.5-13,32-29.7,34.6v0.4h-36.8
	c-11.2,0-20.3,9.1-20.3,20.3c0,11.2,9.1,20.3,20.3,20.3h36.8v0.1H489C508.9,375.3,525.2,391.6,525.2,411.5z"/>
<path class="st0" d="M130.6,754.4L130.6,754.4L130.6,754.4c7.7,0,14.7-3.2,19.7-8.2c5.1-5.1,8.2-12.1,8.2-19.7h0v0v-33.6
	c0-3.4-2.8-6.2-6.2-6.2c-3.4,0-6.2,2.8-6.2,6.2v33.6v0h0c0,4.3-1.7,8.1-4.6,10.9c-2.8,2.8-6.7,4.6-10.9,4.6v0h0h0v0
	c-4.3,0-8.1-1.8-10.9-4.6c-2.8-2.8-4.6-6.7-4.6-11h0v0v-33.6c0-3.4-2.8-6.2-6.2-6.2c-3.4,0-6.2,2.8-6.2,6.2v33.6v0h0
	c0,7.7,3.1,14.7,8.2,19.7C115.9,751.2,122.9,754.4,130.6,754.4L130.6,754.4L130.6,754.4z"/>
<path class="st0" d="M204.9,754.4c3.4,0,6.2-2.8,6.2-6.2c0-3.4-2.8-6.2-6.2-6.2h-17.2v0c-3,0-5.7-1.2-7.7-3.2c-2-2-3.2-4.7-3.2-7.7
	h0v0v-38.2c0-3.4-2.8-6.2-6.2-6.2c-3.4,0-6.2,2.8-6.2,6.2V731v0h0c0,6.4,2.6,12.3,6.8,16.5c4.2,4.2,10.1,6.9,16.5,6.9v0H204.9z"/>
<path class="st0" d="M47.7,489.7c12.8,1.4,24.2-7.9,25.6-20.7l19.1-175.5L160,465.3l0.1,0.3l0,0.1l0.1,0.3l0.1,0.3l0.1,0.2l0.1,0.3
	l0.1,0.3l0.1,0.2l0.2,0.4l0,0l0.2,0.4l0.1,0.2c0.7,1.3,1.5,2.5,2.5,3.6l0.1,0.1c0.2,0.3,0.4,0.5,0.7,0.8l0,0
	c0.2,0.2,0.4,0.4,0.6,0.6c0.2,0.2,0.4,0.4,0.6,0.6v0c0.3,0.2,0.5,0.5,0.8,0.7l0.1,0.1c1.1,0.9,2.3,1.8,3.6,2.5l0.2,0.1l0.3,0.2
	l0.1,0l0.4,0.2l0.2,0.1l0.3,0.1l0.3,0.1l0.3,0.1l0.3,0.1l0.3,0.1l0.1,0l0.3,0.1c2.5,1,5.1,1.5,7.6,1.6l0.3,0l0.3,0h0.2h0.2l0.3,0
	l0.3,0c2.3-0.1,4.6-0.5,6.8-1.3l0.2-0.1l0.3-0.1l0.2-0.1l0.1,0l0.2-0.1l0.2-0.1l0.2-0.1l0.3-0.1l0.3-0.1l0.3-0.1l0.3-0.1l0.2-0.1
	l0.4-0.2l0,0l0.4-0.2l0.1-0.1c1.5-0.8,2.8-1.8,4-2.9l0.4-0.3l0.1-0.1c1.9-1.7,3.5-3.8,4.7-6.2l0.1-0.1l0.2-0.3l0.1-0.2l0.2-0.3
	l0.1-0.2l0.2-0.4l0-0.1l0.2-0.4l0.2-0.4v0v0l0.1-0.2l67.6-171.6L290.1,469c1.4,12.8,12.8,22,25.6,20.7c12.8-1.4,22.1-12.8,20.7-25.6
	l-22.5-206.9l0-0.1l0-0.1h0c-0.3-2.4-0.8-4.8-1.5-7.2c-0.7-2.3-1.7-4.5-2.8-6.7c-5.7-10.8-16.3-18.4-28.9-20.1l0,0
	c-0.4-0.1-0.8-0.1-1.3-0.1c-2-0.2-3.9-0.3-5.9-0.2l-0.1,0v0c-2.5,0.1-4.9,0.4-7,0.9c-12,2.8-22.3,11.2-27.1,23.4l-57.6,146.2
	L124.2,247c-4.8-12.2-15-20.6-27.1-23.4c-2.2-0.5-4.5-0.8-7-0.9v0l-0.1,0c-1.9-0.1-3.9,0-5.9,0.2c-0.4,0-0.8,0.1-1.3,0.1l0,0
	c-12.6,1.7-23.2,9.3-28.9,20.1c-1.2,2.2-2.1,4.5-2.8,6.7c-0.7,2.4-1.2,4.8-1.5,7.2h0l0,0.1v0.1L27,464.1
	C25.7,476.9,34.9,488.3,47.7,489.7z"/>
<path class="st0" d="M21,754.4c3.4,0.4,6.5-2,6.9-5.4l5.3-44.8l19,44.1c0.6,1.4,1.7,2.6,3.2,3.3c3.2,1.4,6.8-0.1,8.2-3.3l19-44.1
	l5.3,44.8c0.4,3.4,3.5,5.8,6.9,5.4c3.4-0.4,5.8-3.5,5.4-6.9l-6.2-52l0-0.1c0-0.3-0.1-0.6-0.1-0.8c-0.1-0.4-0.2-0.8-0.3-1.2
	c-0.2-0.6-0.5-1.2-0.8-1.8c-1.6-2.7-4.4-4.5-7.7-5h0v0l0,0c-0.2,0-0.3,0-0.5,0l0,0c-0.4,0-0.9,0-1.3,0c-0.6,0-1.2,0.1-1.8,0.3
	c-3.2,0.7-5.9,2.8-7.3,5.9L58,730l-16.1-37.4c-0.1-0.2-0.2-0.5-0.3-0.7c-0.2-0.4-0.5-0.8-0.7-1.2c-0.4-0.5-0.8-1-1.3-1.5
	c-2.2-2.1-5.4-3.2-8.7-2.7l-0.1,0h0l0,0c-0.7,0.1-1.3,0.2-1.8,0.4c-0.2,0.1-0.3,0.1-0.5,0.2c-0.4,0.2-0.8,0.3-1.2,0.5
	c-3,1.5-5,4.3-5.4,7.7l-6.2,52C15.2,750.9,17.6,754,21,754.4z"/>
<path class="st0" d="M225.9,754.4c3.4,0,6.2-2.8,6.2-6.2V699h17.7c3.4,0,6.2-2.8,6.2-6.2c0-3.4-2.8-6.2-6.2-6.2h-23.9H202
	c-3.4,0-6.2,2.8-6.2,6.2c0,3.4,2.8,6.2,6.2,6.2h17.7v49.2C219.7,751.6,222.4,754.4,225.9,754.4z"/>
<path class="st0" d="M258.5,692.8v55.4c0,3.4,2.8,6.2,6.2,6.2c3.4,0,6.2-2.8,6.2-6.2v-55.4c0-3.4-2.8-6.2-6.2-6.2
	C261.2,686.6,258.5,689.4,258.5,692.8z"/>
<path class="st0" d="M356.2,725.1c0,3.4,2.8,6.2,6.2,6.2H384l2.2,17.6c0.4,3.4,3.5,5.8,6.9,5.4c3.4-0.4,5.8-3.5,5.4-6.9l-4.3-34.6
	v-0.1c0-0.2-0.1-0.4-0.1-0.6c-0.3-1.8-0.6-3.5-1.1-5.1c-0.5-1.8-1.2-3.5-2.1-5.3c-4.5-9-12.9-15.3-23.7-15.3h-0.1v0
	c-2.1,0-4.1,0.2-6,0.7c-2,0.5-3.8,1.1-5.5,2c-8.5,4.3-14.2,13.4-15.4,23.6l-3.9,34.6c-0.4,3.4,2.1,6.5,5.5,6.9
	c3.4,0.4,6.5-2.1,6.9-5.5l3.9-34.6c0.7-6.1,3.9-11.4,8.7-13.9c0.9-0.5,1.8-0.8,2.8-1c1-0.2,2.1-0.4,3.1-0.4v0h0.1
	c5.7,0,10.1,3.5,12.6,8.4c0.5,1,0.9,2.1,1.3,3.3c0.3,1.1,0.6,2.1,0.7,3.2c0,0.1,0,0.3,0,0.4v0.1l0.6,4.6h-20
	C359,718.9,356.2,721.7,356.2,725.1z"/>
<path class="st0" d="M460.5,752.3c0.2-0.1,0.4-0.1,0.5-0.2l0,0l0.1,0c0.3-0.1,0.5-0.2,0.8-0.4c0.5-0.3,0.9-0.5,1.3-0.9
	c2-1.7,3.2-4.1,3.2-6.8v-51.2c0-3.4-2.8-6.2-6.2-6.2s-6.2,2.8-6.2,6.2v40.7l-33.1-42.2c-1.6-2.1-4-3.3-6.6-3.4h-0.1h0
	c-0.6,0-1.1,0-1.5,0.1v0l0,0c-0.2,0-0.4,0.1-0.7,0.1c-0.3,0.1-0.6,0.1-0.9,0.2c-2.1,0.7-3.8,2.2-4.9,4.1h0l0,0
	c-0.2,0.4-0.4,0.8-0.5,1.1l0,0v0c-0.2,0.6-0.4,1.3-0.5,2c-0.1,0.3-0.1,0.7-0.1,1.1v0v51.4c0,3.4,2.8,6.2,6.2,6.2
	c3.4,0,6.2-2.8,6.2-6.2v-41l33.1,42.2l0.1,0.1h0l0,0l0.2,0.2c0.3,0.3,0.5,0.6,0.8,0.8c0.4,0.4,0.8,0.7,1.2,0.9
	c0.3,0.2,0.5,0.3,0.8,0.4C455.8,752.9,458.2,753.1,460.5,752.3L460.5,752.3L460.5,752.3L460.5,752.3L460.5,752.3z"/>
<path class="st0" d="M496.4,699h18.3c3.4,0,6.2-2.8,6.2-6.2c0-3.4-2.8-6.2-6.2-6.2h-18.3h0v0c-6.7,0-12.9,2.7-17.3,7.2
	c-4.4,4.4-7.2,10.6-7.2,17.3h0v0v18.7v0h0c0,6.8,2.8,12.9,7.2,17.3c4.4,4.4,10.6,7.2,17.3,7.2v0h18.3c3.4,0,6.2-2.8,6.2-6.2
	c0-3.4-2.8-6.2-6.2-6.2h-18.3v0c-3.3,0-6.3-1.4-8.5-3.6c-2.2-2.2-3.6-5.2-3.6-8.6h0v0v-18.7v0h0c0-3.3,1.4-6.3,3.6-8.5
	C490,700.4,493.1,699,496.4,699L496.4,699L496.4,699z"/>
<path class="st0" d="M550.7,686.6L550.7,686.6L550.7,686.6L550.7,686.6c-8,0-15.2,3.1-20.4,8.1c-5.3,5.1-8.6,12.1-8.6,19.9h0v0v11.6
	v0h0c0,7.8,3.3,14.8,8.6,19.9c5.2,5,12.5,8.2,20.4,8.2v0h0h0v0c7.9,0,15.1-3.1,20.4-8.2c5.3-5.1,8.6-12.1,8.6-19.9h0v0v-11.6v0h0
	c0-7.8-3.3-14.8-8.6-19.9C565.9,689.7,558.7,686.6,550.7,686.6z M567.3,726.3c0,4.2-1.8,8.1-4.8,11c-3,2.9-7.2,4.7-11.8,4.7v0h0h0v0
	c-4.6,0-8.8-1.8-11.8-4.7c-2.9-2.8-4.8-6.7-4.8-11h0v0v-11.6v0h0c0-4.2,1.8-8.1,4.8-11c3-2.9,7.2-4.7,11.8-4.7v0h0v0
	c4.6,0,8.8,1.8,11.8,4.7c2.9,2.8,4.8,6.7,4.8,11h0v0L567.3,726.3L567.3,726.3L567.3,726.3z"/>
<path class="st0" d="M306.6,686.6h-24h0v0c-0.1,0-0.3,0-0.4,0c-1.6,0.1-3,0.8-4.1,1.8l0,0l-0.1,0.1c-0.6,0.6-1.1,1.3-1.4,2.1
	c-0.3,0.8-0.5,1.6-0.5,2.5l0,0v27v28.1c0,3.4,2.8,6.2,6.2,6.2h30.3h0v0c5.6,0,10.6-2.3,14.3-5.9c3.7-3.7,5.9-8.7,5.9-14.3h0l0,0v0h0
	c0-5.4-2.1-10.3-5.5-13.9c-0.1-0.1-0.3-0.3-0.4-0.4c-1.1-1.1-2.3-2-3.5-2.8c1.9-3.1,3.1-6.7,3.1-10.6h0l0,0v0h0
	c0-5.5-2.2-10.4-5.8-14C317,688.9,312.1,686.6,306.6,686.6L306.6,686.6L306.6,686.6z M311.8,701.2c1.4,1.4,2.2,3.2,2.2,5.3h0v0l0,0
	h0c0,2-0.8,3.9-2.2,5.2l0,0l0,0c-1.2,1.2-2.9,2-4.7,2.2h-0.5h0h-2.3c-3.4,0-6.2,2.8-6.2,6.2c0,3.4,2.8,6.2,6.2,6.2h2.3h0h6v0
	c2.1,0,4.1,0.9,5.5,2.3l0.2,0.2c1.3,1.4,2.1,3.3,2.1,5.3h0v0l0,0h0c0,2.1-0.9,4.1-2.3,5.5c-1.4,1.4-3.4,2.3-5.5,2.3v0h0h-24v-21.9
	V699h18h0v0C308.6,699,310.5,699.9,311.8,701.2z"/>
<g>
	<path class="st1" d="M131.4,88h338.4h17.9c25,0,45.5,21.7,45.5,48.2v23c0,32.5-44.1,32.4-44.1,0.2v-12.6c0-8-6.6-14.5-14.5-14.5
		l-357,0c-8,0-14.5,6.5-14.5,14.5v12.3c0,32.4-42,32.1-42,0.7v-23.7C61,109.7,81.5,88,106.5,88H131.4L131.4,88z M294.8,625h231
		c52.8,0,53.3-56.1,47.9-83.8c-2.9-18.6-34.6-18.5-38,0v21.6c0,9.9-8.1,17.9-17.9,17.9h-223h-17.8H74.7c-9.9,0-17.9-8.1-17.9-17.9
		v-21.6c-3.5-18.4-35.1-18.6-38,0C13.4,569,13.9,625,66.7,625h210.2H294.8z"/>
</g>
</svg>
