<?xml version="1.0" encoding="utf-8"?>
<!-- Generator: Adobe Illustrator 23.0.6, SVG Export Plug-In . SVG Version: 6.00 Build 0)  -->
<svg version="1.1" id="Camada_1" xmlns="http://www.w3.org/2000/svg" xmlns:xlink="http://www.w3.org/1999/xlink" x="0px" y="0px"
	 viewBox="0 0 512 512" style="enable-background:new 0 0 512 512;" xml:space="preserve">
<style type="text/css">
	.st0{fill:#1C8D87;}
</style>
<path class="st0" d="M497.9,97.1c-9.5-10.8-23-16.8-38.1-16.8H95.4l-3.7-27.5C87.8,23.2,67.2,0,44.8,0H18C9.7,0,3,6.7,3,15
	s6.7,15,15,15h26.8c4.8,0,15,10.2,17.2,26.8l42.9,322c1.9,14.2,9.2,27.5,20.5,37.4c8.4,7.4,18.4,12.3,28.8,14.3
	c-4.2,7.8-6.7,16.8-6.7,26.3c0,30.4,24.8,55.2,55.2,55.2s55.2-24.7,55.2-55.2c0-9.1-2.2-17.6-6.1-25.2h78.6
	c-3.9,7.6-6.1,16.1-6.1,25.2c0,30.4,24.8,55.2,55.2,55.2s55.2-24.7,55.2-55.2c0-9.1-2.2-17.6-6.1-25.2h39.3c8.3,0,15-6.7,15-15
	s-6.7-15-15-15H165.3c-14.7,0-28.7-12.3-30.6-26.8l-3.1-23.5h116.7l0,0l0,0h96.4l0,0l0,0h83c14.3,0,28.5-5.5,39.8-15.4
	c11.4-9.9,18.6-23.2,20.5-37.4l21.5-161.4C511.6,122.2,507.4,108,497.9,97.1z M227.9,456.8c0,13.9-11.3,25.2-25.2,25.2
	s-25.2-11.3-25.2-25.2c0-13.9,11.3-25.2,25.2-25.2C216.6,431.7,227.9,443,227.9,456.8z M404.7,456.8c0,13.9-11.3,25.2-25.2,25.2
	s-25.2-11.3-25.2-25.2c0-13.9,11.3-25.2,25.2-25.2S404.7,443,404.7,456.8z M475.4,116.9c3.7,4.2,5.3,10,4.5,16.3l-9,67.7H368.7
	l6-90.5h85.1C466.1,110.3,471.6,112.7,475.4,116.9z M262.3,321.3l-6-90.5h80.4l-6,90.5H262.3z M254.3,200.8l-6-90.5h96.4l-6,90.5
	H254.3z M218.2,110.3l6,90.5H111.5l-12.1-90.5H218.2z M115.5,230.8h110.8l6,90.5H127.5L115.5,230.8z M427.7,321.3h-67l6-90.5h100.1
	l-8.5,63.7C456.4,309.1,442.4,321.3,427.7,321.3z"/>
</svg>
