<?xml version="1.0" encoding="utf-8"?>
<!-- Generator: Adobe Illustrator 23.0.6, SVG Export Plug-In . SVG Version: 6.00 Build 0)  -->
<svg version="1.1" id="Layer_1" xmlns="http://www.w3.org/2000/svg" xmlns:xlink="http://www.w3.org/1999/xlink" x="0px" y="0px"
	 viewBox="0 0 770.2 152.2" style="enable-background:new 0 0 770.2 152.2;" xml:space="preserve">
<style type="text/css">
	.st0{fill:#FFFFFF;}
</style>
<g>
	<g>
		<polygon class="st0" points="56.2,121 56.2,121 17.7,98.9 17.7,79.1 35,89 35,89 57.4,101.9 71,94.1 48.4,81.1 48.4,81.1 
			17.7,63.5 17.7,53.3 39.7,40.7 22.1,30.5 0,43.2 0,63.5 0,109.1 57.4,142.1 57.5,142 75.2,152.2 92.9,142.1 		"/>
		<polygon class="st0" points="67.6,16 67.6,16 39.7,0 22,10.2 39.8,20.4 39.7,20.4 57.4,30.5 57.4,30.5 97.2,53.3 97.2,73.2 
			79.9,63.3 79.9,63.2 57.4,50.3 43.8,58.2 79.9,78.9 79.9,78.9 97.2,88.8 97.2,98.9 75.1,111.6 92.9,121.7 114.8,109.1 
			114.8,109.1 114.9,109.1 114.9,88.8 114.9,43.2 		"/>
	</g>
	<path class="st0" d="M209.8,62.6c-2.2-3.1-8.3-6-15.3-6c-9.1,0-13.4,3.2-13.4,7.2c0,4.7,6.6,6,14.4,6.8c13.5,1.4,26,4.3,26,17.2
		c0,12-12.8,17.2-27.2,17.2c-13.2,0-23.4-3.4-28.2-13.3l10.2-4.4c2.9,5.9,10.3,8.6,18.2,8.6c7.7,0,14.9-2.2,14.9-8.1
		c0-5.1-6.4-7.2-15-7.9c-13.2-1.3-25.4-4.2-25.4-16.3c0-11.1,13.1-15.6,25-15.7c10.1,0,20.5,2.4,25.4,10.7L209.8,62.6z"/>
	<polygon class="st0" points="462.9,58.8 442.4,58.8 442.4,49.5 495.6,49.5 495.6,58.8 475.1,58.8 475.1,103.5 462.9,103.5 	"/>
	<path class="st0" d="M646.5,76.8c-0.2,14-10.4,27.9-33.2,27.9c-22.7,0-33.3-13.6-33.3-27.8c0-14.2,10.9-28.4,33.3-28.4
		C635.6,48.4,646.7,62.7,646.5,76.8 M592.1,77c0.3,8.9,6,18.3,21.2,18.3c15.2,0,21-9.6,21.2-18.4c0.2-9.1-5.9-19.3-21.2-19.3
		C598.1,57.7,591.9,67.9,592.1,77"/>
	<polygon class="st0" points="285.5,49.6 268.8,68.8 275.6,77.4 287.3,64.4 287.3,103.6 299.5,103.6 299.5,49.6 	"/>
	<polygon class="st0" points="265.1,72.6 245.1,49.6 231,49.6 231,103.6 243.2,103.6 243.2,64.3 263.8,87.8 266.2,87.8 272.1,81.3 	
		"/>
	<polygon class="st0" points="346.6,49.5 333.3,49.5 304.3,103.5 317.5,103.5 323,93.3 351,93.3 346,83.8 327.9,83.8 339.9,60.9 
		351.9,83.8 358.3,96.1 362.3,103.5 375.6,103.5 	"/>
	<path class="st0" d="M418.8,84.4c12.3-2.1,16.3-9.6,16.3-17c0-9.3-8-17.8-23.3-17.9c-10.3,0-20.5-0.1-30.8-0.1v54h12.2V90.2h0
		l0-13.9h0V59h18.6c7.7,0,11.1,4.3,11.1,8.6c0,4.3-3.3,8.6-11.1,8.6h-13.4l0,9.2h6.6l18.8,18h14.5v-0.7L418.8,84.4z"/>
	<polygon class="st0" points="537.4,72.8 537.4,72.8 517.2,49.6 503.1,49.6 503.1,103.6 515.3,103.6 515.3,64.3 535.9,87.8 
		538.3,87.8 544.4,81 	"/>
	<polygon class="st0" points="557.6,49.6 540.8,68.8 547.9,77.1 559.4,64.4 559.4,103.6 571.6,103.6 571.6,49.6 	"/>
	<polygon class="st0" points="690.2,98.6 714.5,49.5 700.8,49.5 684.2,85.3 	"/>
	<polygon class="st0" points="681.3,91.5 681.3,91.5 661.8,49.5 648.1,49.5 675,103.7 686.8,103.7 	"/>
	<polygon class="st0" points="770.2,49.5 721.8,49.5 721.8,103.5 770.2,103.5 770.2,93.5 733.9,93.5 733.9,81.3 733.9,81.3 
		733.9,71.8 733.9,71.8 733.9,59.4 770.2,59.4 	"/>
	<rect x="739.1" y="71.8" class="st0" width="29.8" height="9.5"/>
</g>
</svg>
