<?xml version="1.0" encoding="utf-8"?>
<!-- Generator: Adobe Illustrator 23.0.6, SVG Export Plug-In . SVG Version: 6.00 Build 0)  -->
<svg version="1.1" id="Layer_1" xmlns="http://www.w3.org/2000/svg" xmlns:xlink="http://www.w3.org/1999/xlink" x="0px" y="0px"
	 viewBox="0 0 512 441.2" style="enable-background:new 0 0 512 441.2;" xml:space="preserve">
<style type="text/css">
	.st0{fill:#1C8D87;}
</style>
<g>
	<g>
		<g>
			<path class="st0" d="M511.5,188.5l-59-181.6c-1.7-5.3-7.3-8.1-12.6-6.4L6.9,141.2c-5.3,1.7-8.1,7.3-6.4,12.6l27.9,85.9
				c0,0.2,0,0.3,0,0.5v190.9c0,5.5,4.5,10,10,10h455.3c5.5,0,10-4.5,10-10V240.3c0-5.5-4.5-10-10-10h-78.3l89.7-29.2
				C510.3,199.4,513.2,193.7,511.5,188.5z M483.7,250.3v170.9H48.4V250.3h55.4v111.4c0,5.5,4.5,10,10,10s10-4.5,10-10V250.3h228.4
				H483.7z M350.6,230.3H46.4l-23.8-73.1L75.3,140l20.2,61.3c1.4,4.2,5.3,6.9,9.5,6.9c1,0,2.1-0.2,3.1-0.5c5.2-1.7,8.1-7.4,6.4-12.6
				l-20.1-61.2L436.6,22.6l52.8,162.6L350.6,230.3z"/>
			<path class="st0" d="M421.4,66.4c-1.7-5.3-7.3-8.1-12.6-6.4l-260.7,84.7c-5.3,1.7-8.1,7.3-6.4,12.6c1.4,4.2,5.3,6.9,9.5,6.9
				c1,0,2.1-0.2,3.1-0.5L415,79C420.2,77.3,423.1,71.7,421.4,66.4z"/>
			<path class="st0" d="M377.4,131.4l49.4-16c5.3-1.7,8.1-7.3,6.4-12.6c-1.7-5.3-7.3-8.1-12.6-6.4l-49.4,16
				c-5.3,1.7-8.1,7.3-6.4,12.6c1.4,4.2,5.3,6.9,9.5,6.9C375.4,131.9,376.4,131.7,377.4,131.4z"/>
			<path class="st0" d="M419.1,177.3c1.4,4.2,5.3,6.9,9.5,6.9c1,0,2.1-0.2,3.1-0.5l15.6-5.1c5.3-1.7,8.1-7.3,6.4-12.6
				s-7.3-8.1-12.6-6.4l-15.6,5.1C420.3,166.4,417.4,172.1,419.1,177.3z"/>
			<path class="st0" d="M390.7,176.1l-15.6,5.1c-5.3,1.7-8.1,7.3-6.4,12.6c1.4,4.2,5.3,6.9,9.5,6.9c1,0,2.1-0.2,3.1-0.5l15.6-5.1
				c5.3-1.7,8.1-7.3,6.4-12.6S395.9,174.4,390.7,176.1z"/>
			<path class="st0" d="M251.1,151.4l-91.3,29.7c-5.3,1.7-8.1,7.3-6.4,12.6c1.4,4.2,5.3,6.9,9.5,6.9c1,0,2.1-0.2,3.1-0.5l91.3-29.7
				c5.3-1.7,8.1-7.3,6.4-12.6C262,152.6,256.4,149.7,251.1,151.4z"/>
			<path class="st0" d="M113.8,384.9c-5.5,0-10,4.5-10,10v3.9c0,5.5,4.5,10,10,10s10-4.5,10-10v-3.9
				C123.8,389.4,119.3,384.9,113.8,384.9z"/>
			<path class="st0" d="M161.6,287.2c0,5.5,4.5,10,10,10h274.1c5.5,0,10-4.5,10-10s-4.5-10-10-10H171.6
				C166,277.2,161.6,281.7,161.6,287.2z"/>
			<path class="st0" d="M445.7,315.4h-51.9c-5.5,0-10,4.5-10,10s4.5,10,10,10h51.9c5.5,0,10-4.5,10-10S451.2,315.4,445.7,315.4z"/>
			<path class="st0" d="M445.7,382h-16.4c-5.5,0-10,4.5-10,10s4.5,10,10,10h16.4c5.5,0,10-4.5,10-10S451.2,382,445.7,382z"/>
			<path class="st0" d="M392.6,382h-16.4c-5.5,0-10,4.5-10,10s4.5,10,10,10h16.4c5.5,0,10-4.5,10-10S398.1,382,392.6,382z"/>
			<path class="st0" d="M267.5,315.4h-96c-5.5,0-10,4.5-10,10s4.5,10,10,10h96c5.5,0,10-4.5,10-10S273,315.4,267.5,315.4z"/>
		</g>
	</g>
</g>
</svg>
