<svg width="236" height="236" viewBox="0 0 236 236" fill="none" xmlns="http://www.w3.org/2000/svg">
<path d="M147.5 9.83328H88.5V29.4999H147.5V9.83328ZM108.167 137.667H127.833V78.6666H108.167V137.667ZM187.128 72.6683L201.092 58.7049C196.863 53.6899 192.242 48.9699 187.227 44.8399L173.263 58.8033C158.022 46.6099 138.847 39.3333 118 39.3333C69.1283 39.3333 29.5 78.9616 29.5 127.833C29.5 176.705 69.03 216.333 118 216.333C166.97 216.333 206.5 176.705 206.5 127.833C206.5 106.987 199.223 87.8116 187.128 72.6683ZM118 196.667C79.945 196.667 49.1667 165.888 49.1667 127.833C49.1667 89.7783 79.945 58.9999 118 58.9999C156.055 58.9999 186.833 89.7783 186.833 127.833C186.833 165.888 156.055 196.667 118 196.667Z" fill="#1C8D87"/>
</svg>
