<?xml version="1.0" encoding="utf-8"?>
<!-- Generator: Adobe Illustrator 25.2.1, SVG Export Plug-In . SVG Version: 6.00 Build 0)  -->
<svg version="1.1" id="Camada_1" xmlns="http://www.w3.org/2000/svg" xmlns:xlink="http://www.w3.org/1999/xlink" x="0px" y="0px"
	 viewBox="0 0 236 236" style="enable-background:new 0 0 236 236;" xml:space="preserve">
<style type="text/css">
	.st0{fill:#FFFFFF;}
</style>
<path class="st0" d="M147.5,9.8h-59v19.7h59V9.8z M108.2,137.7h19.7v-59h-19.7V137.7z M187.1,72.7l14-14c-4.2-5-8.8-9.7-13.9-13.9
	l-14,14C158,46.6,138.8,39.3,118,39.3c-48.9,0-88.5,39.6-88.5,88.5c0,48.9,39.5,88.5,88.5,88.5s88.5-39.6,88.5-88.5
	C206.5,107,199.2,87.8,187.1,72.7z M118,196.7c-38.1,0-68.8-30.8-68.8-68.8C49.2,89.8,79.9,59,118,59s68.8,30.8,68.8,68.8
	C186.8,165.9,156.1,196.7,118,196.7z"/>
</svg>
