<?xml version="1.0" encoding="utf-8"?>
<!-- Generator: Adobe Illustrator 23.0.6, SVG Export Plug-In . SVG Version: 6.00 Build 0)  -->
<svg version="1.1" id="Layer_1" xmlns="http://www.w3.org/2000/svg" xmlns:xlink="http://www.w3.org/1999/xlink" x="0px" y="0px"
	 viewBox="0 0 541.9 175.1" style="enable-background:new 0 0 541.9 175.1;" xml:space="preserve">
<style type="text/css">
	.st0{fill:url(#SVGID_1_);}
	.st1{fill:url(#SVGID_2_);}
	.st2{fill:url(#SVGID_3_);}
	.st3{fill:url(#SVGID_4_);}
</style>
<g>
	<linearGradient id="SVGID_1_" gradientUnits="userSpaceOnUse" x1="30.3363" y1="90.7902" x2="539.0828" y2="87.4432">
		<stop  offset="0" style="stop-color:#262860"/>
		<stop  offset="1" style="stop-color:#3D429B"/>
	</linearGradient>
	<path class="st0" d="M541.9,172.3c-13.5,0-27.1,0-40.8,0c-1.5-7.2-3.1-14.2-4.4-21.3c-0.5-2.9-1.5-4.1-4.7-4
		c-16.4,0.2-32.7,0.2-49.1,0c-2.5,0-3.5,0.8-4.2,3.1c-2.3,6.7-4.7,13.4-7.2,20.1c-0.3,0.9-1.5,2.1-2.3,2.1
		c-14.7,0.1-29.5,0.1-44.7,0.1c2.8-6.7,5.4-13,8-19.4c19-45.4,38-90.7,57.1-136.1C453.8,7.1,460,3,470.6,3c11.8,0,23.7,0,35.8,0
		c1.2,5.5,2.4,11,3.5,16.4c9.4,44.8,18.7,89.7,28.1,134.5c1.2,5.7,2.6,11.4,3.9,17.2C541.9,171.5,541.9,171.9,541.9,172.3z
		 M488.5,112.1c-4.3-20.8-8.6-41.4-12.9-62c-0.2,0-0.4-0.1-0.5-0.1c-7.5,20.6-14.9,41.2-22.5,62.1
		C464.8,112.1,476.5,112.1,488.5,112.1z"/>
	<linearGradient id="SVGID_2_" gradientUnits="userSpaceOnUse" x1="30.3278" y1="89.5138" x2="539.0731" y2="86.1668">
		<stop  offset="0" style="stop-color:#262860"/>
		<stop  offset="1" style="stop-color:#3D429B"/>
	</linearGradient>
	<path class="st1" d="M364.2,0c5.4,1,10.8,1.8,16.1,3.1c4.9,1.1,9.6,2.7,14.8,4.2c-2.6,12.2-5.1,24.1-7.6,35.7
		c-6.8-2-13.3-4.3-20-5.8c-9.2-2-18.6-2.8-27.7-0.2c-3.7,1-7.5,3-10.4,5.5c-5,4.3-5.1,10.5-0.3,15c3.3,3.1,7.2,5.7,11.2,8
		c8.9,5.4,18.3,10,27,15.8c10.2,6.8,17.7,16,19.2,28.6c2.8,22.2-5.4,39.7-24.1,52.1c-11.7,7.8-25,11.3-38.8,12.5
		c-19.3,1.8-38.2-0.4-56.7-6.4c-1.2-0.4-2.4-0.9-3.6-1.4c-0.4-0.1-0.7-0.4-1.2-0.8c2.6-12.2,5.2-24.4,7.9-37c3.1,1.4,6.1,2.7,9.1,4
		c14.4,5.8,29.3,8.5,44.7,5.6c4-0.8,8.1-2.5,11.5-4.8c7.4-4.9,8.1-14.2,1.4-20.1c-4.4-3.8-9.7-6.6-14.8-9.7
		c-7.9-4.8-16.2-8.9-23.7-14.2c-9.5-6.9-16.4-16-17.8-28.2c-2-18.2,4.8-33,18.8-44.5c12.2-10,26.6-14.5,42-16.3
		c0.9-0.1,1.7-0.4,2.5-0.6C350.5,0,357.4,0,364.2,0z"/>
	<linearGradient id="SVGID_3_" gradientUnits="userSpaceOnUse" x1="30.3174" y1="87.9816" x2="539.0638" y2="84.6346">
		<stop  offset="0" style="stop-color:#262860"/>
		<stop  offset="1" style="stop-color:#3D429B"/>
	</linearGradient>
	<path class="st2" d="M205.6,3.2c-2.3,5.5-4.5,10.8-6.7,16c-21,50.1-42,100.2-62.9,150.3c-1,2.4-2.2,3-4.6,3
		c-13.3-0.1-26.5-0.2-39.8,0c-2.8,0-3.7-0.9-4.4-3.5C76,125.2,64.5,81.5,53.4,37.7c-2-8-6.1-13.5-13.8-16.9
		c-12.3-5.4-25-9.2-38-12.3C1.1,8.4,0.5,8.2,0,8.1C0.1,3,0.1,3,4.9,3c23.2,0,46.4,0,69.6,0c11,0,18.9,6.4,21,17.3
		c5.9,30.8,11.6,61.7,17.5,92.5c0.3,1.3,0.5,2.7,0.9,4.6c0.6-1.1,1-1.8,1.3-2.5C129.6,78.5,144,42.1,158.3,5.6
		c0.8-2,1.7-2.7,3.9-2.6C175.7,3.1,189.1,3,202.6,3C203.5,3,204.3,3.1,205.6,3.2z"/>
	<linearGradient id="SVGID_4_" gradientUnits="userSpaceOnUse" x1="30.3248" y1="89.134" x2="539.0713" y2="85.787">
		<stop  offset="0" style="stop-color:#262860"/>
		<stop  offset="1" style="stop-color:#3D429B"/>
	</linearGradient>
	<path class="st3" d="M188,172.4c12.1-56.6,24.1-112.8,36.2-169.2c14.7,0,29.2,0,43.9,0c-1.8,8.6-3.6,17-5.4,25.4
		c-10,46.6-19.9,93.1-29.8,139.7c-0.7,3.2-1.8,4.3-5.2,4.2c-12-0.2-24.1-0.1-36.1-0.1C190.5,172.4,189.4,172.4,188,172.4z"/>
</g>
</svg>
