<?xml version="1.0" encoding="utf-8"?>
<!-- Generator: Adobe Illustrator 23.0.6, SVG Export Plug-In . SVG Version: 6.00 Build 0)  -->
<svg version="1.1" id="Camada_1" xmlns="http://www.w3.org/2000/svg" xmlns:xlink="http://www.w3.org/1999/xlink" x="0px" y="0px"
	 viewBox="0 0 233 237" style="enable-background:new 0 0 233 237;" xml:space="preserve">
<style type="text/css">
	.st0{fill:none;}
	.st1{fill:none;stroke:#1C8D87;stroke-width:6;}
	.st2{fill:#1C8D87;}
	.st3{fill:#F7F7F7;}
	.st4{fill:#8D1C22;}
</style>
<g id="Group_322" transform="translate(-832 -216)">
	<g id="Group_321">
		<g id="Ellipse_54" transform="translate(832 216)">
			<circle class="st0" cx="116.5" cy="116.5" r="116.5"/>
			<circle class="st1" cx="116.5" cy="116.5" r="113.5"/>
		</g>
		<g id="tickets" transform="translate(874.996 263.996)">
			<g id="Group_319" transform="translate(0.004 0.004)">
				<g id="Group_318" transform="translate(0 0)">
					<path id="Path_262" class="st2" d="M146.9,54.1L129.9,2c-0.5-1.5-2.1-2.3-3.6-1.8l0,0L2,40.5c-1.5,0.5-2.3,2.1-1.8,3.6l0,0
						l8,24.7v55c0,1.6,1.3,2.9,2.9,2.9h130.7c1.6,0,2.9-1.3,2.9-2.9V69c0-1.6-1.3-2.9-2.9-2.9h-22.5l25.8-8.4
						C146.5,57.2,147.3,55.6,146.9,54.1z M138.9,71.9V121h-125V71.9h15.9v32c0,1.6,1.3,2.9,2.9,2.9c1.6,0,2.9-1.3,2.9-2.9v-32H138.9
						L138.9,71.9z M100.7,66.1H13.3l-6.8-21l15.1-4.9l5.8,17.6c0.4,1.2,1.5,2,2.7,2c0.3,0,0.6-0.1,0.9-0.1c1.5-0.5,2.3-2.1,1.8-3.6
						L27,38.5l98.2-32l15.2,46.7L100.7,66.1z"/>
					<path id="Path_263" class="st2" d="M121,19.1c-0.5-1.5-2.1-2.3-3.6-1.8l0,0L42.5,41.5c-1.5,0.5-2.3,2.1-1.8,3.6l0,0
						c0.4,1.2,1.5,2,2.7,2c0.3,0,0.6-0.1,0.9-0.1l74.8-24.3C120.7,22.2,121.5,20.6,121,19.1z"/>
					<path id="Path_264" class="st2" d="M108.4,37.7l14.2-4.6c1.5-0.5,2.3-2.1,1.8-3.6s-2.1-2.3-3.6-1.8l0,0l-14.2,4.6
						c-1.5,0.5-2.3,2.1-1.8,3.6l0,0c0.4,1.2,1.5,2,2.7,2C107.8,37.9,108.1,37.8,108.4,37.7z"/>
					<path id="Path_265" class="st2" d="M120.3,50.9c0.4,1.2,1.5,2,2.7,2c0.3,0,0.6-0.1,0.9-0.1l4.5-1.5c1.5-0.5,2.3-2.1,1.8-3.6
						s-2.1-2.3-3.6-1.8l-4.5,1.5C120.7,47.8,119.8,49.4,120.3,50.9z"/>
					<path id="Path_266" class="st2" d="M112.2,50.6l-4.5,1.5c-1.5,0.5-2.3,2.1-1.8,3.6l0,0c0.4,1.2,1.5,2,2.7,2
						c0.3,0,0.6-0.1,0.9-0.1L114,56c1.5-0.5,2.3-2.1,1.8-3.6S113.7,50.1,112.2,50.6L112.2,50.6L112.2,50.6z"/>
					<path id="Path_267" class="st2" d="M72.1,43.5L45.9,52c-1.5,0.5-2.3,2.1-1.8,3.6l0,0c0.4,1.2,1.5,2,2.7,2
						c0.3,0,0.6-0.1,0.9-0.1L73.9,49c1.5-0.5,2.3-2.1,1.8-3.6C75.2,43.8,73.6,43,72.1,43.5z"/>
					<path id="Path_268" class="st2" d="M32.7,110.5c-1.6,0-2.9,1.3-2.9,2.9v1.1c0,1.6,1.3,2.9,2.9,2.9c1.6,0,2.9-1.3,2.9-2.9l0,0
						v-1.1C35.5,111.8,34.3,110.5,32.7,110.5z"/>
					<path id="Path_269" class="st2" d="M46.4,82.5c0,1.6,1.3,2.9,2.9,2.9H128c1.6,0,2.9-1.3,2.9-2.9s-1.3-2.9-2.9-2.9H49.3
						C47.7,79.6,46.4,80.9,46.4,82.5C46.4,82.4,46.4,82.4,46.4,82.5z"/>
					<path id="Path_270" class="st2" d="M128,90.6h-14.9c-1.6,0-2.9,1.3-2.9,2.9s1.3,2.9,2.9,2.9H128c1.6,0,2.9-1.3,2.9-2.9
						S129.5,90.6,128,90.6z"/>
					<path id="Path_271" class="st2" d="M128,109.7h-4.7c-1.6,0-2.9,1.3-2.9,2.9s1.3,2.9,2.9,2.9h4.7c1.6,0,2.9-1.3,2.9-2.9
						S129.5,109.7,128,109.7z"/>
					<path id="Path_272" class="st2" d="M112.7,109.7H108c-1.6,0-2.9,1.3-2.9,2.9s1.3,2.9,2.9,2.9h4.7c1.6,0,2.9-1.3,2.9-2.9
						S114.3,109.7,112.7,109.7L112.7,109.7z"/>
					<path id="Path_273" class="st2" d="M76.8,90.6H49.2c-1.6,0-2.9,1.3-2.9,2.9s1.3,2.9,2.9,2.9h27.6c1.6,0,2.9-1.3,2.9-2.9
						S78.4,90.6,76.8,90.6z"/>
				</g>
			</g>
		</g>
	</g>
	<g id="Group_320">
		<g id="Ellipse_55">
			<circle class="st3" cx="1014.5" cy="410.5" r="40.5"/>
			<path class="st4" d="M1014.5,372c21.2,0,38.5,17.3,38.5,38.5s-17.3,38.5-38.5,38.5S976,431.7,976,410.5S993.3,372,1014.5,372
				 M1014.5,368c-23.5,0-42.5,19-42.5,42.5s19,42.5,42.5,42.5c23.5,0,42.5-19,42.5-42.5S1038,368,1014.5,368L1014.5,368z"/>
		</g>
		<g>
			<g>
				<g>
					<path class="st4" d="M1027.5,430.6L1027.5,430.6l0-7.2c0-2.4-1.6-5.5-3.5-6.9l-7.2-5.5V410l7.2-5.5c2-1.4,3.5-4.5,3.5-6.9v-7.2
						h0c1.3,0,2.3-1.1,2.3-2.4v-0.4c0-1.3-1-2.4-2.3-2.4h-26c-1.3,0-2.4,1.1-2.4,2.4v0.4c0,1.3,1.1,2.4,2.4,2.4l0,7.2
						c0,2.4,1.5,5.5,3.5,6.9l7.5,5.5v0.9l-7.5,5.5c-2,1.4-3.5,4.5-3.5,6.9v7.2l0,0c-1.3,0-2.4,1.1-2.4,2.4v0.4
						c0,1.3,1.1,2.4,2.4,2.4h26c1.3,0,2.4-1.1,2.4-2.4v-0.4C1029.9,431.6,1028.8,430.6,1027.5,430.6z M1025.9,430.6h-2v-6.2
						c0-1.8-1.1-4-2.6-5.1l-6.4-4.7c-0.3-0.2-0.6-0.2-0.9,0l-6.4,4.7c-1.5,1.1-2.6,3.3-2.6,5.1v6.2h-2v-7.2c0-1.9,1.3-4.5,2.9-5.6
						l7.9-5.8c0.2-0.1,0.3-0.4,0.3-0.6v-1.7c0-0.3-0.1-0.5-0.3-0.6l-7.9-5.8c-1.5-1.2-2.9-3.7-2.9-5.7v-7.2h22.8v7.2
						c0,1.9-1.3,4.5-2.9,5.6l-7.8,5.8c-0.2,0.1-0.3,0.4-0.3,0.6v1.7c0,0.3,0.1,0.5,0.3,0.6l7.8,5.8c1.5,1.1,2.9,3.7,2.9,5.6V430.6
						L1025.9,430.6z"/>
				</g>
			</g>
			<g>
				<g>
					<path class="st4" d="M1021.7,400.8c-0.1-0.3-0.4-0.5-0.8-0.5h-12.8c-0.3,0-0.6,0.2-0.8,0.5s0,0.7,0.3,0.9l6.4,4.7
						c0.1,0.1,0.3,0.2,0.5,0.2c0.2,0,0.3-0.1,0.5-0.2l6.4-4.7C1021.7,401.5,1021.8,401.1,1021.7,400.8z"/>
				</g>
			</g>
		</g>
	</g>
</g>
</svg>
