<?xml version="1.0" encoding="utf-8"?>
<!-- Generator: Adobe Illustrator 23.0.6, SVG Export Plug-In . SVG Version: 6.00 Build 0)  -->
<svg version="1.1" id="Camada_1" xmlns="http://www.w3.org/2000/svg" xmlns:xlink="http://www.w3.org/1999/xlink" x="0px" y="0px"
	 viewBox="0 0 348.9 60.6" style="enable-background:new 0 0 348.9 60.6;" xml:space="preserve">
<style type="text/css">
	.st0{fill:#FFFFFF;}
</style>
<g>
	<path class="st0" d="M111,27.1L105.4,41h-0.2l-7.5-17.5c-0.7-1.6-1.1-2.3-2.1-3.3v-0.3h8.4v0.3c-0.8,0.7-1.1,1-1.1,1.7
		c0,0.3,0.1,0.7,0.3,1.1l4,9.6l3-7.6l-0.7-1.6c-0.6-1.5-1.1-2.3-2.1-3.3v-0.3h8.4v0.3c-0.8,0.7-1.1,1-1.1,1.7c0,0.3,0.1,0.7,0.3,1.2
		l3.8,9.7l3.9-9.4c0.2-0.4,0.2-0.8,0.2-1c0-0.8-0.9-1.5-1.7-2.2l0-0.3h5.9v0.3c-1.1,1-1.9,1.7-2.6,3.4L117.1,41h-0.2L111,27.1z"/>
	<path class="st0" d="M137,19.6c6,0,11,4.4,11,10.7c0,6.2-5,10.7-11,10.7c-6,0-11-4.5-11-10.7C126,24.1,131,19.6,137,19.6 M137,21.1
		c-3.5,0-4.9,3.2-4.9,9.2c0,6,1.4,9.2,4.9,9.2c3.5,0,4.9-3.2,4.9-9.2C142,24.3,140.6,21.1,137,21.1"/>
	<path class="st0" d="M156.6,37.1c0,2,0.4,2.3,1.8,3.3v0.3h-9.1v-0.3c1.4-1,1.8-1.3,1.8-3.3V23.5c0-2-0.4-2.3-1.8-3.3v-0.3h11.7
		c4.3,0,7.9,1.6,7.9,5.6c0,3.4-3.1,5.1-6.7,5.2v0.1c2.6,0.1,4.4,1.2,5.3,3.7l0.9,2.5c0.8,2.1,1.2,2.5,2.7,3.3l0,0.4h-6.9
		c-0.7-1.1-1-2-1.4-3.2l-1.2-3.6c-0.6-1.7-1.3-2.5-3.2-2.5h-1.9V37.1z M156.6,30.1l2.3,0c2.9,0,4.3-1.6,4.3-4.4
		c0-2.6-1.4-4.4-4.3-4.4h-2.3V30.1z"/>
	<path class="st0" d="M180.9,39.3h4.2c2.9,0,3.9-1.9,6.6-6h0.4l-1.1,7.4h-17.3v-0.3c1.4-1,1.8-1.3,1.8-3.3V23.5c0-2-0.4-2.3-1.8-3.3
		v-0.3h9.1v0.3c-1.4,1-1.8,1.3-1.8,3.3L180.9,39.3z"/>
	<path class="st0" d="M194.1,40.4c1.4-1,1.8-1.3,1.8-3.3V23.5c0-2-0.4-2.3-1.8-3.3v-0.3h9.5c7.5,0,12.1,3.4,12.1,10.3
		c0,7.3-4.9,10.5-11.4,10.5h-10.2V40.4z M203.2,21.4l-1.9,0l0,17.8h2.3c3.8,0,6.3-2.3,6.3-9C209.9,24.4,207.4,21.4,203.2,21.4"/>
	<path class="st0" d="M219.8,30.3L219.8,30.3c0-5.7,4.1-10.8,10.4-10.8c6.3,0,10.3,5,10.3,10.7c0,0,0,0,0,0.1
		c0,5.7-4.1,10.7-10.4,10.7C223.8,41,219.8,36,219.8,30.3 M239.5,30.4L239.5,30.4c0-5.3-3.8-9.9-9.3-9.9c-5.5,0-9.3,4.5-9.3,9.8v0.1
		c0,5.2,3.8,9.8,9.4,9.8C235.7,40.1,239.5,35.6,239.5,30.4"/>
	<polygon class="st0" points="244.3,19.9 256.3,19.9 256.8,20.8 245.3,20.8 245.3,30 256.2,30 256.2,31 245.3,31 245.3,40.7 
		244.3,40.7 	"/>
	<path class="st0" d="M276.2,27.1L270.5,41h-0.2l-7.5-17.5c-0.7-1.6-1.1-2.3-2.1-3.3v-0.3h8.4v0.3c-0.8,0.7-1.1,1-1.1,1.7
		c0,0.3,0.1,0.7,0.3,1.1l4,9.6l3-7.6l-0.7-1.6c-0.6-1.5-1.1-2.3-2.1-3.3v-0.3h8.4v0.3c-0.8,0.7-1.1,1-1.1,1.7c0,0.3,0.1,0.7,0.3,1.2
		l3.8,9.7l3.9-9.4c0.2-0.4,0.2-0.8,0.2-1c0-0.8-0.9-1.5-1.7-2.2v-0.3h5.9v0.3c-1.1,1-1.9,1.7-2.6,3.4L282.2,41H282L276.2,27.1z"/>
	<path class="st0" d="M294.2,20.2v-0.3h9.1v0.3c-1.4,1-1.8,1.3-1.8,3.3v13.6c0,2,0.4,2.3,1.8,3.3l0,0.3h-9.1v-0.3
		c1.4-1,1.8-1.3,1.8-3.3V23.5C296.1,21.5,295.6,21.2,294.2,20.2"/>
	<path class="st0" d="M323.8,23.6c0-2-0.9-2.4-2.4-3.4l0-0.3h6.4l0,0.3c-1.5,1-2.3,1.5-2.3,3.4v17.1H324L309.9,24l0,12.9
		c0,2,0.9,2.4,2.4,3.4l0,0.3h-6.4v-0.3c1.5-1,2.3-1.4,2.3-3.4V23.5c0-2-0.4-2.3-1.8-3.3v-0.3h7.5l10,11.8V23.6z"/>
	<path class="st0" d="M344.8,33.5h-0.4c-1.2-2.7-1.7-2.8-4.1-2.8h-2.9v8.6h4.8c3.1,0,4.2-1.7,6.2-4.8h0.4l-1,6.2h-17.7v-0.3
		c1.4-1,1.8-1.3,1.8-3.3V23.5c0-2-0.4-2.3-1.8-3.3v-0.3h15c0.9,0,1.3-0.1,1.8-0.2l1,5.8h-0.4c-2-2.4-2.8-4.3-6.2-4.3h-3.9v7.9h2.9
		c2.4,0,2.9-0.1,4.1-2.8h0.4L344.8,33.5z"/>
	<polygon class="st0" points="85.3,39.2 65.7,19.6 85.3,0 	"/>
	<polygon class="st0" points="23,19.6 42.7,0 45.8,3.1 26.1,22.7 	"/>
	
		<rect x="26.8" y="15.5" transform="matrix(0.7071 -0.7071 0.7071 0.7071 -0.5798 33.9618)" class="st0" width="27.8" height="4.4"/>
	
		<rect x="33.1" y="21.8" transform="matrix(0.7071 -0.7071 0.7071 0.7071 -3.1939 40.2709)" class="st0" width="27.8" height="4.4"/>
	
		<rect x="39.4" y="28.1" transform="matrix(0.7071 -0.7071 0.7071 0.7071 -5.8074 46.5825)" class="st0" width="27.8" height="4.4"/>
	<rect x="45.8" y="34.4" transform="matrix(0.7071 -0.7071 0.7071 0.7071 -8.422 52.8876)" class="st0" width="27.8" height="4.4"/>
	
		<rect x="52.1" y="40.7" transform="matrix(0.7071 -0.7071 0.7071 0.7071 -11.0344 59.2031)" class="st0" width="27.8" height="4.4"/>
	<rect x="58.4" y="47" transform="matrix(0.7071 -0.7071 0.7071 0.7071 -13.6488 65.5113)" class="st0" width="27.8" height="4.4"/>
	<polygon class="st0" points="0,6.2 0,4.1 38.9,43.1 37.9,44.1 	"/>
	<polygon class="st0" points="0.1,2.1 0,0 41,41 39.9,42 	"/>
	<polygon class="st0" points="0,10.3 0,8.3 36.8,45.1 35.8,46.1 	"/>
	<polygon class="st0" points="0,14.4 0,12.4 34.8,47.2 33.8,48.2 	"/>
	<polygon class="st0" points="0,18.6 0,16.6 32.7,49.3 31.7,50.3 	"/>
	<polygon class="st0" points="0,22.7 0,20.7 30.6,51.3 29.6,52.3 	"/>
	<polygon class="st0" points="0,26.8 0,24.8 28.6,53.4 27.5,54.4 	"/>
	<polygon class="st0" points="0,31 0,29 26.5,55.5 25.5,56.5 	"/>
	<polygon class="st0" points="0,35.1 0,33.1 24.4,57.5 23.4,58.6 	"/>
	<polygon class="st0" points="0,39.3 0,37.3 22.4,59.6 21.3,60.6 	"/>
</g>
</svg>
