<?xml version="1.0" encoding="utf-8"?>
<!-- Generator: Adobe Illustrator 23.0.6, SVG Export Plug-In . SVG Version: 6.00 Build 0)  -->
<svg version="1.1" id="Camada_1" xmlns="http://www.w3.org/2000/svg" xmlns:xlink="http://www.w3.org/1999/xlink" x="0px" y="0px"
	 viewBox="0 0 189.6 81.2" style="enable-background:new 0 0 189.6 81.2;" xml:space="preserve">
<style type="text/css">
	.st0{fill:#FFFFFF;}
</style>
<g>
	<g>
		<path class="st0" d="M65.8,74.2c0.9,0,1.5-0.2,2-0.6c0.4-0.4,0.6-1,0.6-1.8c0-0.3-0.1-0.7-0.2-0.9c-0.1-0.3-0.3-0.5-0.5-0.7
			s-0.5-0.4-0.8-0.5s-0.7-0.2-1.1-0.2H64v4.7H65.8L65.8,74.2z M65.8,67.3c0.9,0,1.8,0.1,2.4,0.3c0.7,0.2,1.2,0.5,1.7,0.9
			c0.4,0.4,0.8,0.9,1,1.4s0.3,1.1,0.3,1.8c0,0.7-0.1,1.3-0.3,1.9c-0.2,0.6-0.6,1-1,1.4s-1,0.7-1.7,0.9c-0.7,0.2-1.5,0.3-2.4,0.3H64
			v4.7h-2.8V67.3H65.8L65.8,67.3z"/>
		<path class="st0" d="M84.3,74.2c0-0.7-0.1-1.4-0.3-1.9c-0.2-0.6-0.5-1.1-0.8-1.5c-0.4-0.4-0.8-0.7-1.3-0.9
			c-0.5-0.2-1.1-0.3-1.7-0.3s-1.2,0.1-1.7,0.3c-0.5,0.2-0.9,0.5-1.3,0.9s-0.6,0.9-0.8,1.5c-0.2,0.6-0.3,1.2-0.3,1.9
			c0,0.7,0.1,1.4,0.3,1.9c0.2,0.6,0.5,1.1,0.8,1.5c0.4,0.4,0.8,0.7,1.3,0.9c0.5,0.2,1.1,0.3,1.7,0.3s1.2-0.1,1.7-0.3
			c0.5-0.2,0.9-0.5,1.3-0.9s0.6-0.9,0.8-1.5C84.2,75.6,84.3,74.9,84.3,74.2L84.3,74.2z M87.2,74.2c0,1-0.2,1.9-0.5,2.8
			s-0.8,1.6-1.4,2.2s-1.4,1.1-2.2,1.5c-0.9,0.4-1.8,0.5-2.9,0.5s-2-0.2-2.9-0.5c-0.9-0.4-1.6-0.8-2.2-1.5c-0.6-0.6-1.1-1.4-1.4-2.2
			c-0.3-0.9-0.5-1.8-0.5-2.8s0.2-1.9,0.5-2.8s0.8-1.6,1.4-2.2s1.4-1.1,2.2-1.5c0.9-0.4,1.8-0.5,2.9-0.5s2,0.2,2.9,0.5
			c0.9,0.4,1.6,0.9,2.2,1.5s1.1,1.4,1.4,2.2C87.1,72.3,87.2,73.2,87.2,74.2L87.2,74.2z"/>
		<path class="st0" d="M94.6,73.8c0.5,0,0.9-0.1,1.2-0.2c0.3-0.1,0.6-0.3,0.8-0.5c0.2-0.2,0.4-0.4,0.5-0.7c0.1-0.3,0.2-0.6,0.2-0.9
			c0-0.6-0.2-1.2-0.6-1.5c-0.4-0.4-1.1-0.5-2-0.5h-1.5v4.3L94.6,73.8L94.6,73.8z M101.2,81.1h-2.6c-0.5,0-0.8-0.2-1-0.5L95,76.3
			c-0.1-0.2-0.2-0.3-0.4-0.4c-0.1-0.1-0.3-0.1-0.6-0.1h-1V81h-2.8V67.3h4.3c1,0,1.8,0.1,2.5,0.3c0.7,0.2,1.2,0.5,1.7,0.8
			c0.4,0.4,0.8,0.8,1,1.3s0.3,1,0.3,1.6c0,0.5-0.1,0.9-0.2,1.3s-0.3,0.8-0.6,1.1c-0.2,0.3-0.5,0.6-0.9,0.9s-0.8,0.5-1.2,0.6
			c0.2,0.1,0.4,0.2,0.5,0.4c0.2,0.1,0.3,0.3,0.4,0.5L101.2,81.1L101.2,81.1z"/>
		<polygon class="st0" points="112.9,69.6 108.9,69.6 108.9,81.1 106.1,81.1 106.1,69.6 102,69.6 102,67.3 112.9,67.3 		"/>
		<path class="st0" d="M125.5,74.2c0-0.7-0.1-1.4-0.3-1.9c-0.2-0.6-0.5-1.1-0.8-1.5c-0.4-0.4-0.8-0.7-1.3-0.9
			c-0.5-0.2-1.1-0.3-1.7-0.3s-1.2,0.1-1.7,0.3c-0.5,0.2-0.9,0.5-1.3,0.9s-0.6,0.9-0.8,1.5c-0.2,0.6-0.3,1.2-0.3,1.9
			c0,0.7,0.1,1.4,0.3,1.9c0.2,0.6,0.5,1.1,0.8,1.5c0.4,0.4,0.8,0.7,1.3,0.9c0.5,0.2,1.1,0.3,1.7,0.3s1.2-0.1,1.7-0.3
			c0.5-0.2,0.9-0.5,1.3-0.9s0.6-0.9,0.8-1.5C125.4,75.6,125.5,74.9,125.5,74.2L125.5,74.2z M128.4,74.2c0,1-0.2,1.9-0.5,2.8
			s-0.8,1.6-1.4,2.2s-1.4,1.1-2.2,1.5c-0.9,0.4-1.8,0.5-2.9,0.5s-2-0.2-2.9-0.5c-0.9-0.4-1.6-0.8-2.2-1.5c-0.6-0.6-1.1-1.4-1.4-2.2
			c-0.3-0.9-0.5-1.8-0.5-2.8s0.2-1.9,0.5-2.8s0.8-1.6,1.4-2.2s1.4-1.1,2.2-1.5c0.9-0.4,1.8-0.5,2.9-0.5s2,0.2,2.9,0.5
			c0.9,0.4,1.6,0.9,2.2,1.5s1.1,1.4,1.4,2.2C128.3,72.3,128.4,73.2,128.4,74.2L128.4,74.2z"/>
	</g>
	<g>
		<path class="st0" d="M36,17.4L22.9,49.6h-0.4L5,9C3.3,5.2,2.4,3.7,0,1.4V0.7h19.6v0.7c-1.8,1.5-2.6,2.4-2.6,4
			C17,6.1,17.3,7,17.7,8l9.4,22.4l7-17.6L32.5,9c-1.4-3.4-2.6-5.3-5-7.6V0.7H47v0.7c-1.8,1.5-2.6,2.4-2.6,4c0,0.8,0.2,1.7,0.6,2.7
			l8.9,22.5l9-21.8c0.4-1,0.5-1.8,0.5-2.3c0-1.9-2.1-3.6-4.1-5.1V0.7H73v0.7c-2.6,2.3-4.3,3.9-6,7.9L50,49.6h-0.4L36,17.4L36,17.4z"
			/>
		<path class="st0" d="M152.7,17.4l-13.2,32.3h-0.4L121.6,9c-1.7-3.8-2.5-5.3-5-7.6V0.7h19.6v0.7c-1.8,1.5-2.6,2.4-2.6,4
			c0,0.8,0.3,1.6,0.7,2.6l9.4,22.4l7-17.6L149.1,9c-1.4-3.4-2.6-5.3-5-7.6V0.7h19.4v0.7c-1.8,1.5-2.6,2.4-2.6,4
			c0,0.8,0.2,1.7,0.6,2.7l8.9,22.5l9-21.8c0.4-1,0.5-1.8,0.5-2.3c0-1.9-2.1-3.6-4.1-5.1V0.7h13.7v0.7c-2.5,2.3-4.3,3.9-6,7.9
			l-17,40.4h-0.4L152.7,17.4L152.7,17.4z"/>
		<path class="st0" d="M94.8,3.4c-8.2,0-17.2,7.4-17.2,21.4c0,13.9,9,21.4,17.2,21.4S112,38.8,112,24.8C112,10.9,103,3.4,94.8,3.4
			L94.8,3.4z M94.8,0c14.1,0,25.6,10.3,25.6,24.8s-11.5,24.8-25.6,24.8S69.2,39.3,69.2,24.8S80.7,0,94.8,0L94.8,0z"/>
	</g>
	<g>
		<polygon class="st0" points="107.9,28.5 101.9,22.5 107.9,16.5 		"/>
		<polygon class="st0" points="88.8,22.5 94.8,16.5 95.8,17.4 89.7,23.4 		"/>
		<polygon class="st0" points="90.7,24.4 96.7,18.4 97.7,19.3 91.7,25.4 		"/>
		<polygon class="st0" points="92.6,26.4 98.7,20.3 99.6,21.3 93.6,27.3 		"/>
		<polygon class="st0" points="94.6,28.3 100.6,22.3 101.6,23.2 95.5,29.3 		"/>
		<polygon class="st0" points="96.5,30.3 102.6,24.2 103.5,25.2 97.5,31.2 		"/>
		<polygon class="st0" points="98.5,32.2 104.5,26.2 105.5,27.1 99.4,33.1 		"/>
		<polygon class="st0" points="100.4,34.1 106.4,28.1 107.4,29.1 101.4,35.1 		"/>
		<polygon class="st0" points="81.7,18.3 81.7,17.7 93.6,29.7 93.3,30 		"/>
		<polygon class="st0" points="81.7,17.1 81.7,16.5 94.3,29.1 94,29.4 		"/>
		<polygon class="st0" points="81.7,19.6 81.7,19 93,30.3 92.7,30.6 		"/>
		<polygon class="st0" points="81.7,20.9 81.7,20.3 92.4,31 92.1,31.3 		"/>
		<polygon class="st0" points="81.7,22.2 81.7,21.5 91.7,31.6 91.4,31.9 		"/>
		<polygon class="st0" points="81.7,23.4 81.7,22.8 91.1,32.2 90.8,32.6 		"/>
		<polygon class="st0" points="81.7,24.7 81.7,24.1 90.5,32.9 90.1,33.2 		"/>
		<polygon class="st0" points="81.7,26 81.7,25.4 89.8,33.5 89.5,33.8 		"/>
		<polygon class="st0" points="81.7,27.3 81.7,26.6 89.2,34.1 88.9,34.5 		"/>
		<polygon class="st0" points="81.7,28.5 81.7,27.9 88.6,34.8 88.2,35.1 		"/>
	</g>
</g>
</svg>
