<?xml version="1.0" encoding="utf-8"?>
<!-- Generator: Adobe Illustrator 23.0.6, SVG Export Plug-In . SVG Version: 6.00 Build 0)  -->
<svg version="1.1" id="Camada_1" xmlns="http://www.w3.org/2000/svg" xmlns:xlink="http://www.w3.org/1999/xlink" x="0px" y="0px"
	 viewBox="0 0 189.5 49.7" style="enable-background:new 0 0 189.5 49.7;" xml:space="preserve">
<style type="text/css">
	.st0{fill:#FFFFFF;}
</style>
<g>
	<path class="st0" d="M36,17.4L22.9,49.6h-0.4L5,9C3.3,5.2,2.4,3.7,0,1.4V0.7h19.6v0.7c-1.8,1.5-2.6,2.4-2.6,4C17,6.1,17.3,7,17.7,8
		l9.4,22.4l7-17.6L32.5,9c-1.4-3.4-2.6-5.3-5-7.6V0.7H47v0.7c-1.8,1.5-2.6,2.4-2.6,4c0,0.8,0.2,1.7,0.6,2.7l8.9,22.5l9-21.8
		c0.4-1,0.5-1.8,0.5-2.3c0-1.9-2.1-3.6-4.1-5.1V0.7H73v0.7c-2.6,2.3-4.3,3.9-6,7.9L50,49.6h-0.4L36,17.4L36,17.4z"/>
	<path class="st0" d="M152.7,17.4l-13.2,32.3h-0.4L121.6,9c-1.7-3.8-2.5-5.3-5-7.6V0.7h19.6v0.7c-1.8,1.5-2.6,2.4-2.6,4
		c0,0.8,0.3,1.6,0.7,2.6l9.4,22.4l7-17.6L149.1,9c-1.4-3.4-2.6-5.3-5-7.6V0.7h19.4v0.7c-1.8,1.5-2.6,2.4-2.6,4
		c0,0.8,0.2,1.7,0.6,2.7l8.9,22.5l9-21.8c0.4-1,0.5-1.8,0.5-2.3c0-1.9-2.1-3.6-4.1-5.1V0.7h13.7v0.7c-2.5,2.3-4.3,3.9-6,7.9
		l-17,40.4h-0.4L152.7,17.4L152.7,17.4z"/>
	<path class="st0" d="M94.8,3.4c-8.2,0-17.2,7.4-17.2,21.4c0,13.9,9,21.4,17.2,21.4S112,38.8,112,24.8C112,10.9,103,3.4,94.8,3.4
		L94.8,3.4z M94.8,0c14.1,0,25.6,10.3,25.6,24.8s-11.5,24.8-25.6,24.8S69.2,39.3,69.2,24.8S80.7,0,94.8,0L94.8,0z"/>
</g>
<g>
	<polygon class="st0" points="107.9,28.5 101.9,22.5 107.9,16.5 	"/>
	<polygon class="st0" points="88.8,22.5 94.8,16.5 95.8,17.4 89.7,23.4 	"/>
	<polygon class="st0" points="90.7,24.4 96.7,18.4 97.7,19.3 91.7,25.4 	"/>
	<polygon class="st0" points="92.6,26.4 98.7,20.3 99.6,21.3 93.6,27.3 	"/>
	<polygon class="st0" points="94.6,28.3 100.6,22.3 101.6,23.2 95.5,29.3 	"/>
	<polygon class="st0" points="96.5,30.3 102.6,24.2 103.5,25.2 97.5,31.2 	"/>
	<polygon class="st0" points="98.5,32.2 104.5,26.2 105.5,27.1 99.4,33.1 	"/>
	<polygon class="st0" points="100.4,34.1 106.4,28.1 107.4,29.1 101.4,35.1 	"/>
	<polygon class="st0" points="81.7,18.3 81.7,17.7 93.6,29.7 93.3,30 	"/>
	<polygon class="st0" points="81.7,17.1 81.7,16.5 94.3,29.1 94,29.4 	"/>
	<polygon class="st0" points="81.7,19.6 81.7,19 93,30.3 92.7,30.6 	"/>
	<polygon class="st0" points="81.7,20.9 81.7,20.3 92.4,31 92.1,31.3 	"/>
	<polygon class="st0" points="81.7,22.2 81.7,21.5 91.7,31.6 91.4,31.9 	"/>
	<polygon class="st0" points="81.7,23.4 81.7,22.8 91.1,32.2 90.8,32.6 	"/>
	<polygon class="st0" points="81.7,24.7 81.7,24.1 90.5,32.9 90.1,33.2 	"/>
	<polygon class="st0" points="81.7,26 81.7,25.4 89.8,33.5 89.5,33.8 	"/>
	<polygon class="st0" points="81.7,27.3 81.7,26.6 89.2,34.1 88.9,34.5 	"/>
	<polygon class="st0" points="81.7,28.5 81.7,27.9 88.6,34.8 88.2,35.1 	"/>
</g>
</svg>
