<?xml version="1.0" encoding="utf-8"?>
<!-- Generator: Adobe Illustrator 23.0.6, SVG Export Plug-In . SVG Version: 6.00 Build 0)  -->
<svg version="1.1" id="Camada_1" xmlns="http://www.w3.org/2000/svg" xmlns:xlink="http://www.w3.org/1999/xlink" x="0px" y="0px"
	 viewBox="0 0 170.7 121.3" style="enable-background:new 0 0 170.7 121.3;" xml:space="preserve">
<style type="text/css">
	.st0{fill:#FFFFFF;}
</style>
<g>
	<polygon class="st0" points="170.7,78.5 131.5,39.3 170.7,0 	"/>
	<polygon class="st0" points="46.1,39.3 85.4,0 91.5,6.2 52.3,45.5 	"/>
	<rect x="53.7" y="31" transform="matrix(0.7071 -0.7071 0.7071 0.7071 -1.161 67.9501)" class="st0" width="55.5" height="8.7"/>
	<rect x="66.3" y="43.6" transform="matrix(0.7071 -0.7071 0.7071 0.7071 -6.3908 80.574)" class="st0" width="55.5" height="8.7"/>
	
		<rect x="78.9" y="56.3" transform="matrix(0.7071 -0.7071 0.7071 0.7071 -11.6205 93.1989)" class="st0" width="55.5" height="8.7"/>
	
		<rect x="91.6" y="68.9" transform="matrix(0.7071 -0.7071 0.7071 0.7071 -16.8507 105.8191)" class="st0" width="55.5" height="8.7"/>
	
		<rect x="104.2" y="81.5" transform="matrix(0.7071 -0.7071 0.7071 0.7071 -22.0787 118.452)" class="st0" width="55.5" height="8.7"/>
	
		<rect x="116.8" y="94.1" transform="matrix(0.7071 -0.7071 0.7071 0.7071 -27.3084 131.0772)" class="st0" width="55.5" height="8.7"/>
	<polygon class="st0" points="0,12.3 0,8.3 77.8,86.2 75.8,88.2 	"/>
	<polygon class="st0" points="0.1,4.2 0,0 82,82 79.9,84.1 	"/>
	<polygon class="st0" points="0,20.6 0,16.6 73.7,90.3 71.6,92.3 	"/>
	<polygon class="st0" points="0,28.9 0,24.8 69.6,94.4 67.5,96.5 	"/>
	<polygon class="st0" points="0,37.2 0,33.1 65.4,98.6 63.4,100.6 	"/>
	<polygon class="st0" points="0,45.4 0,41.4 61.3,102.7 59.2,104.7 	"/>
	<polygon class="st0" points="0,53.7 0,49.7 57.1,106.8 55.1,108.9 	"/>
	<polygon class="st0" points="0,62 0,57.9 53,111 51,113 	"/>
	<polygon class="st0" points="0,70.3 0,66.2 48.9,115.1 46.8,117.1 	"/>
	<polygon class="st0" points="0,78.6 0,74.5 44.7,119.2 42.7,121.3 	"/>
</g>
</svg>
